M48
; DRILL file {KiCad 8.0.2} date 2024-06-08T15:50:01-0500
; FORMAT={-:-/ absolute / inch / decimal}
; #@! TF.CreationDate,2024-06-08T15:50:01-05:00
; #@! TF.GenerationSoftware,Kicad,Pcbnew,8.0.2
; #@! TF.FileFunction,Plated,1,2,PTH
FMAT,2
INCH
; #@! TA.AperFunction,Plated,PTH,ViaDrill
T1C0.0100
; #@! TA.AperFunction,Plated,PTH,ViaDrill
T2C0.0157
; #@! TA.AperFunction,Plated,PTH,ComponentDrill
T3C0.0354
; #@! TA.AperFunction,Plated,PTH,ComponentDrill
T4C0.0394
%
G90
G05
T1
X5.699Y-3.917
X5.735Y-3.522
X5.845Y-3.02
X5.875Y-3.4075
X5.9382Y-3.77
X5.9646Y-3.572
X5.972Y-3.7496
X6.0128Y-3.5231
X6.0345Y-3.6998
X6.0635Y-3.634
X6.0635Y-3.6998
X6.109Y-4.197
X6.1835Y-3.996
X6.184Y-4.3087
X6.3289Y-4.5
X6.3289Y-4.5512
X6.3289Y-4.6024
X6.3289Y-4.7953
X6.3289Y-4.8465
X6.3289Y-4.8976
X6.3761Y-4.5
X6.3761Y-4.5512
X6.3761Y-4.6024
X6.3761Y-4.7953
X6.3761Y-4.8465
X6.3761Y-4.8976
X6.4194Y-4.5
X6.4194Y-4.5512
X6.4194Y-4.6024
X6.4194Y-4.7953
X6.4194Y-4.8465
X6.4194Y-4.8976
X6.4628Y-4.5
X6.4628Y-4.5512
X6.4628Y-4.6024
X6.4628Y-4.7953
X6.4628Y-4.8465
X6.4628Y-4.8976
X6.51Y-4.5
X6.51Y-4.5512
X6.51Y-4.6024
X6.51Y-4.7953
X6.51Y-4.8465
X6.51Y-4.8976
X6.5281Y-3.7012
X6.5286Y-3.4601
X6.5286Y-3.59
X6.5533Y-4.5
X6.5533Y-4.5512
X6.5533Y-4.6024
X6.5533Y-4.7953
X6.5533Y-4.8465
X6.5533Y-4.8976
X6.5966Y-4.5
X6.5966Y-4.5512
X6.5966Y-4.6024
X6.5966Y-4.7953
X6.5966Y-4.8465
X6.5966Y-4.8976
X6.6439Y-4.5
X6.6439Y-4.5512
X6.6439Y-4.6024
X6.6439Y-4.7953
X6.6439Y-4.8465
X6.6439Y-4.8976
X6.6872Y-4.5
X6.6872Y-4.5512
X6.6872Y-4.6024
X6.6872Y-4.7953
X6.6872Y-4.8465
X6.6872Y-4.8976
X6.7305Y-4.5
X6.7305Y-4.5512
X6.7305Y-4.6024
X6.7305Y-4.7953
X6.7305Y-4.8465
X6.7305Y-4.8976
X6.8737Y-3.9797
X6.8737Y-4.208
X6.8737Y-4.4364
X6.8737Y-4.6647
X6.8737Y-4.8931
X6.8737Y-5.1214
X6.9977Y-3.4529
X7.061Y-3.39
X7.2287Y-3.8797
X7.2287Y-4.108
X7.5906Y-4.1688
X7.5906Y-4.22
X7.5906Y-4.2712
X7.5906Y-3.8688
X7.5906Y-3.92
X7.5906Y-3.9712
X7.5945Y-4.7717
X7.5945Y-4.8228
X7.5945Y-4.874
X7.5984Y-4.4764
X7.5984Y-4.5276
X7.5984Y-4.5787
X7.6378Y-4.1688
X7.6378Y-4.22
X7.6378Y-4.2712
X7.6378Y-3.8688
X7.6378Y-3.92
X7.6378Y-3.9712
X7.6417Y-4.7717
X7.6417Y-4.8228
X7.6417Y-4.874
X7.6457Y-4.4764
X7.6457Y-4.5276
X7.6457Y-4.5787
X7.6811Y-4.1688
X7.6811Y-4.22
X7.6811Y-4.2712
X7.6811Y-3.8688
X7.6811Y-3.92
X7.6811Y-3.9712
X7.685Y-4.7717
X7.685Y-4.8228
X7.685Y-4.874
X7.689Y-4.4764
X7.689Y-4.5276
X7.689Y-4.5787
X7.7244Y-4.1688
X7.7244Y-4.22
X7.7244Y-4.2712
X7.7244Y-3.8688
X7.7244Y-3.92
X7.7244Y-3.9712
X7.7283Y-4.7717
X7.7283Y-4.8228
X7.7283Y-4.874
X7.7323Y-4.4764
X7.7323Y-4.5276
X7.7323Y-4.5787
X7.7717Y-4.1688
X7.7717Y-4.22
X7.7717Y-4.2712
X7.7717Y-3.8688
X7.7717Y-3.92
X7.7717Y-3.9712
X7.7756Y-4.7717
X7.7756Y-4.8228
X7.7756Y-4.874
X7.7795Y-4.4764
X7.7795Y-4.5276
X7.7795Y-4.5787
X7.815Y-4.1688
X7.815Y-4.22
X7.815Y-4.2712
X7.815Y-3.8688
X7.815Y-3.92
X7.815Y-3.9712
X7.8189Y-4.7717
X7.8189Y-4.8228
X7.8189Y-4.874
X7.8228Y-4.4764
X7.8228Y-4.5276
X7.8228Y-4.5787
X7.8583Y-4.1688
X7.8583Y-4.22
X7.8583Y-4.2712
X7.8583Y-3.8688
X7.8583Y-3.92
X7.8583Y-3.9712
X7.8622Y-4.7717
X7.8622Y-4.8228
X7.8622Y-4.874
X7.8661Y-4.4764
X7.8661Y-4.5276
X7.8661Y-4.5787
X7.9055Y-4.1688
X7.9055Y-4.22
X7.9055Y-4.2712
X7.9056Y-3.8688
X7.9056Y-3.92
X7.9056Y-3.9712
X7.9094Y-4.7717
X7.9094Y-4.8228
X7.9094Y-4.874
X7.9134Y-4.4764
X7.9134Y-4.5276
X7.9134Y-4.5787
X7.9488Y-4.1688
X7.9488Y-4.22
X7.9488Y-4.2712
X7.9489Y-3.8688
X7.9489Y-3.92
X7.9489Y-3.9712
X7.9528Y-4.7717
X7.9528Y-4.8228
X7.9528Y-4.874
X7.9567Y-4.4764
X7.9567Y-4.5276
X7.9567Y-4.5787
X7.9921Y-4.1688
X7.9921Y-4.22
X7.9921Y-4.2712
X7.9922Y-3.8688
X7.9922Y-3.92
X7.9922Y-3.9712
X7.9961Y-4.7717
X7.9961Y-4.8228
X7.9961Y-4.874
X8.0Y-4.4764
X8.0Y-4.5276
X8.0Y-4.5787
T2
X5.787Y-3.605
X6.2343Y-3.475
X6.4125Y-3.4601
X6.6135Y-3.7675
X7.225Y-5.025
X7.2823Y-4.5647
X7.284Y-4.3364
X7.2886Y-4.7931
X7.37Y-4.475
X7.3701Y-4.87
X7.4074Y-4.335
X7.6619Y-3.67
X7.7953Y-4.2205
X7.9286Y-3.67
T3
X5.8453Y-3.078
X5.8453Y-3.178
X5.9453Y-3.078
X5.9453Y-3.178
X6.0453Y-3.078
X6.0453Y-3.178
X6.1453Y-3.078
X6.1453Y-3.178
X6.2453Y-3.078
X6.2453Y-3.178
X6.3453Y-3.078
X6.3453Y-3.178
X6.4453Y-3.078
X6.4453Y-3.178
X6.5453Y-3.078
X6.5453Y-3.178
X6.6453Y-3.078
X6.6453Y-3.178
X6.7453Y-3.078
X6.7453Y-3.178
X6.8453Y-3.078
X6.8453Y-3.178
X6.9453Y-3.078
X6.9453Y-3.178
X7.0453Y-3.078
X7.0453Y-3.178
X7.1453Y-3.078
X7.1453Y-3.178
X7.2453Y-3.078
X7.2453Y-3.178
X7.3453Y-3.078
X7.3453Y-3.178
X7.4453Y-3.078
X7.4453Y-3.178
X7.5453Y-3.078
X7.5453Y-3.178
X7.6453Y-3.078
X7.6453Y-3.178
X7.7453Y-3.078
X7.7453Y-3.178
T4
X5.6488Y-4.0344
X5.6488Y-4.1344
X5.6488Y-4.2344
X5.6488Y-4.3344
X5.7488Y-4.0344
X5.7488Y-4.1344
X5.7488Y-4.2344
X5.7488Y-4.3344
X5.8488Y-4.0344
X5.8488Y-4.1344
X5.8488Y-4.2344
X5.8488Y-4.3344
X5.9488Y-4.0344
X5.9488Y-4.1344
X5.9488Y-4.2344
X6.0488Y-4.0344
X6.0488Y-4.1344
X6.0488Y-4.2344
X6.6029Y-4.7008
X6.7029Y-4.7008
X7.6306Y-3.3548
X7.6306Y-3.4548
X7.6352Y-4.07
X7.6352Y-4.6772
X7.6352Y-5.09
X7.73Y-3.3548
X7.73Y-3.4548
X7.7352Y-4.07
X7.7352Y-4.6772
X7.7352Y-5.09
X7.8294Y-3.3548
X7.8294Y-3.4548
X7.9287Y-3.3548
X7.9287Y-3.4548
M30
