%TF.GenerationSoftware,KiCad,Pcbnew,8.0.2*%
%TF.CreationDate,2024-06-08T15:50:05-05:00*%
%TF.ProjectId,kstars-ekos-smd,6b737461-7273-42d6-956b-6f732d736d64,rev?*%
%TF.SameCoordinates,Original*%
%TF.FileFunction,Soldermask,Top*%
%TF.FilePolarity,Negative*%
%FSLAX46Y46*%
G04 Gerber Fmt 4.6, Leading zero omitted, Abs format (unit mm)*
G04 Created by KiCad (PCBNEW 8.0.2) date 2024-06-08 15:50:05*
%MOMM*%
%LPD*%
G01*
G04 APERTURE LIST*
G04 Aperture macros list*
%AMRoundRect*
0 Rectangle with rounded corners*
0 $1 Rounding radius*
0 $2 $3 $4 $5 $6 $7 $8 $9 X,Y pos of 4 corners*
0 Add a 4 corners polygon primitive as box body*
4,1,4,$2,$3,$4,$5,$6,$7,$8,$9,$2,$3,0*
0 Add four circle primitives for the rounded corners*
1,1,$1+$1,$2,$3*
1,1,$1+$1,$4,$5*
1,1,$1+$1,$6,$7*
1,1,$1+$1,$8,$9*
0 Add four rect primitives between the rounded corners*
20,1,$1+$1,$2,$3,$4,$5,0*
20,1,$1+$1,$4,$5,$6,$7,0*
20,1,$1+$1,$6,$7,$8,$9,0*
20,1,$1+$1,$8,$9,$2,$3,0*%
G04 Aperture macros list end*
%ADD10R,1.701800X1.397000*%
%ADD11RoundRect,0.250000X0.325000X1.100000X-0.325000X1.100000X-0.325000X-1.100000X0.325000X-1.100000X0*%
%ADD12C,6.200000*%
%ADD13O,1.700000X1.700000*%
%ADD14R,1.700000X1.700000*%
%ADD15RoundRect,0.250000X-0.312500X-1.075000X0.312500X-1.075000X0.312500X1.075000X-0.312500X1.075000X0*%
%ADD16R,3.429000X2.413000*%
%ADD17RoundRect,0.250000X1.100000X-0.325000X1.100000X0.325000X-1.100000X0.325000X-1.100000X-0.325000X0*%
%ADD18RoundRect,1.125000X5.375000X1.125000X-5.375000X1.125000X-5.375000X-1.125000X5.375000X-1.125000X0*%
%ADD19C,1.400000*%
%ADD20R,0.889000X1.676400*%
%ADD21R,0.863600X0.787400*%
%ADD22R,0.355600X0.787400*%
%ADD23RoundRect,0.250000X1.075000X-0.312500X1.075000X0.312500X-1.075000X0.312500X-1.075000X-0.312500X0*%
%ADD24RoundRect,0.250000X-0.325000X-1.100000X0.325000X-1.100000X0.325000X1.100000X-0.325000X1.100000X0*%
%ADD25RoundRect,0.250000X-1.100000X0.325000X-1.100000X-0.325000X1.100000X-0.325000X1.100000X0.325000X0*%
%ADD26R,1.397000X0.355600*%
%ADD27R,0.330200X0.609600*%
%ADD28R,0.609600X0.330200*%
%ADD29RoundRect,0.250000X0.312500X1.075000X-0.312500X1.075000X-0.312500X-1.075000X0.312500X-1.075000X0*%
%ADD30RoundRect,0.250000X-0.712500X-2.475000X0.712500X-2.475000X0.712500X2.475000X-0.712500X2.475000X0*%
%ADD31RoundRect,1.125000X-5.375000X-1.125000X5.375000X-1.125000X5.375000X1.125000X-5.375000X1.125000X0*%
%ADD32O,2.000000X17.000000*%
G04 APERTURE END LIST*
D10*
%TO.C,U2*%
X174591500Y-110143600D03*
X174591500Y-112683600D03*
X183608500Y-112683600D03*
X183608500Y-110143600D03*
%TD*%
%TO.C,U3*%
X174591500Y-115943600D03*
X174591500Y-118483600D03*
X183608500Y-118483600D03*
X183608500Y-115943600D03*
%TD*%
%TO.C,U5*%
X174591500Y-127543600D03*
X174591500Y-130083600D03*
X183608500Y-130083600D03*
X183608500Y-127543600D03*
%TD*%
%TO.C,U6*%
X174591500Y-98543600D03*
X174591500Y-101083600D03*
X183608500Y-101083600D03*
X183608500Y-98543600D03*
%TD*%
D11*
%TO.C,C4*%
X165827000Y-94486000D03*
X162877000Y-94486000D03*
%TD*%
D12*
%TO.C,*%
X143500000Y-79500000D03*
%TD*%
D13*
%TO.C,H2*%
X196342000Y-87752000D03*
D14*
X196342000Y-85212000D03*
%TD*%
D15*
%TO.C,R1*%
X145156980Y-97547000D03*
X148081980Y-97547000D03*
%TD*%
D13*
%TO.C,C9*%
X170254000Y-119400000D03*
D14*
X167714000Y-119400000D03*
%TD*%
D13*
%TO.C,C11*%
X193934000Y-103378000D03*
D14*
X196474000Y-103378000D03*
%TD*%
D16*
%TO.C,L1*%
X158352000Y-94107000D03*
X158352000Y-88265000D03*
%TD*%
D13*
%TO.C,H1*%
X193818000Y-87752000D03*
D14*
X193818000Y-85212000D03*
%TD*%
D13*
%TO.C,H4*%
X201390000Y-87752000D03*
D14*
X201390000Y-85212000D03*
%TD*%
D13*
%TO.C,C10*%
X193934000Y-118800000D03*
D14*
X196474000Y-118800000D03*
%TD*%
D11*
%TO.C,C6*%
X165827000Y-91186000D03*
X162877000Y-91186000D03*
%TD*%
D17*
%TO.C,C2*%
X152726000Y-89486800D03*
X152726000Y-86536800D03*
%TD*%
D18*
%TO.C,C12*%
X198000000Y-115000000D03*
X198000000Y-122500000D03*
%TD*%
D13*
%TO.C,H5*%
X193934000Y-129286000D03*
D14*
X196474000Y-129286000D03*
%TD*%
D19*
%TO.C,J1*%
X148470000Y-78180000D03*
X148470000Y-80720000D03*
X151010000Y-78180000D03*
X151010000Y-80720000D03*
X153550000Y-78180000D03*
X153550000Y-80720000D03*
X156090000Y-78180000D03*
X156090000Y-80720000D03*
X158630000Y-78180000D03*
X158630000Y-80720000D03*
X161170000Y-78180000D03*
X161170000Y-80720000D03*
X163710000Y-78180000D03*
X163710000Y-80720000D03*
X166250000Y-78180000D03*
X166250000Y-80720000D03*
X168790000Y-78180000D03*
X168790000Y-80720000D03*
X171330000Y-78180000D03*
X171330000Y-80720000D03*
X173870000Y-78180000D03*
X173870000Y-80720000D03*
X176410000Y-78180000D03*
X176410000Y-80720000D03*
X178950000Y-78180000D03*
X178950000Y-80720000D03*
X181490000Y-78180000D03*
X181490000Y-80720000D03*
X184030000Y-78180000D03*
X184030000Y-80720000D03*
X186570000Y-78180000D03*
X186570000Y-80720000D03*
X189110000Y-78180000D03*
X189110000Y-80720000D03*
X191650000Y-78180000D03*
X191650000Y-80720000D03*
X194190000Y-78180000D03*
X194190000Y-80720000D03*
X196730000Y-78180000D03*
X196730000Y-80720000D03*
D20*
X148470000Y-82167800D03*
X148470000Y-76732200D03*
X151010000Y-82167800D03*
X151010000Y-76732200D03*
X153550000Y-82167800D03*
X153550000Y-76732200D03*
X156090000Y-82167800D03*
X156090000Y-76732200D03*
X158630000Y-82167800D03*
X158630000Y-76732200D03*
X161170000Y-82167800D03*
X161170000Y-76732200D03*
X163710000Y-82167800D03*
X163710000Y-76732200D03*
X166250000Y-82167800D03*
X166250000Y-76732200D03*
X168790000Y-82167800D03*
X168790000Y-76732200D03*
X171330000Y-82167800D03*
X171330000Y-76732200D03*
X173870000Y-82167800D03*
X173870000Y-76732200D03*
X176410000Y-82167800D03*
X176410000Y-76732200D03*
X178950000Y-82167800D03*
X178950000Y-76732200D03*
X181490000Y-82167800D03*
X181490000Y-76732200D03*
X184030000Y-82167800D03*
X184030000Y-76732200D03*
X186570000Y-82167800D03*
X186570000Y-76732200D03*
X189110000Y-82167800D03*
X189110000Y-76732200D03*
X191650000Y-82167800D03*
X191650000Y-76732200D03*
X194190000Y-82167800D03*
X194190000Y-76732200D03*
X196730000Y-82167800D03*
X196730000Y-76732200D03*
%TD*%
D12*
%TO.C,*%
X143500000Y-128500000D03*
%TD*%
D21*
%TO.C,R6*%
X181081200Y-93099200D03*
D22*
X180333678Y-93099200D03*
X179840156Y-93099200D03*
X179346634Y-93099200D03*
X178853112Y-93099200D03*
X178359590Y-93099200D03*
X177866068Y-93099200D03*
D21*
X177118800Y-93099200D03*
X177118800Y-94928000D03*
D22*
X177866068Y-94928000D03*
X178359590Y-94928000D03*
X178853112Y-94928000D03*
X179346634Y-94928000D03*
X179840156Y-94928000D03*
X180333678Y-94928000D03*
D21*
X181081200Y-94928000D03*
%TD*%
D14*
%TO.C,J4*%
X151100000Y-102474000D03*
D13*
X151100000Y-105014000D03*
X151100000Y-107554000D03*
%TD*%
D18*
%TO.C,C13*%
X198000000Y-107200000D03*
X198000000Y-99700000D03*
%TD*%
D17*
%TO.C,C5*%
X157060000Y-104449000D03*
X157060000Y-101499000D03*
%TD*%
D14*
%TO.C,J3*%
X146020000Y-102474000D03*
D13*
X146020000Y-105014000D03*
X146020000Y-107554000D03*
X146020000Y-110094000D03*
%TD*%
D23*
%TO.C,R4*%
X149226000Y-89474300D03*
X149226000Y-86549300D03*
%TD*%
D24*
%TO.C,C3*%
X150144480Y-97547000D03*
X153094480Y-97547000D03*
%TD*%
D25*
%TO.C,C1*%
X147007000Y-91572000D03*
X147007000Y-94522000D03*
%TD*%
D13*
%TO.C,H3*%
X198866000Y-87752000D03*
D14*
X198866000Y-85212000D03*
%TD*%
D26*
%TO.C,U1*%
X150719500Y-92647000D03*
X150719500Y-93647000D03*
D27*
X150419489Y-94497000D03*
X150919490Y-94497000D03*
X151419490Y-94497000D03*
X151919491Y-94497000D03*
D28*
X152022666Y-93659701D03*
D26*
X151619480Y-93147000D03*
D27*
X151919491Y-91797000D03*
X151419490Y-91797000D03*
X150919490Y-91797000D03*
X150419489Y-91797000D03*
%TD*%
D23*
%TO.C,R3*%
X157060000Y-109436500D03*
X157060000Y-106511500D03*
%TD*%
D12*
%TO.C,*%
X201500000Y-79500000D03*
%TD*%
D29*
%TO.C,R2*%
X158081980Y-97547000D03*
X155156980Y-97547000D03*
%TD*%
D30*
%TO.C,F1*%
X194612500Y-93218000D03*
X201387500Y-93218000D03*
%TD*%
D14*
%TO.C,J6*%
X143480000Y-102474000D03*
D13*
X143480000Y-105014000D03*
X143480000Y-107554000D03*
X143480000Y-110094000D03*
%TD*%
D14*
%TO.C,J2*%
X153640000Y-102474000D03*
D13*
X153640000Y-105014000D03*
X153640000Y-107554000D03*
%TD*%
D11*
%TO.C,C7*%
X165827000Y-87886000D03*
X162877000Y-87886000D03*
%TD*%
D10*
%TO.C,U4*%
X174591500Y-121743600D03*
X174591500Y-124283600D03*
X183608500Y-124283600D03*
X183608500Y-121743600D03*
%TD*%
D14*
%TO.C,J5*%
X148560000Y-102474000D03*
D13*
X148560000Y-105014000D03*
X148560000Y-107554000D03*
X148560000Y-110094000D03*
%TD*%
D10*
%TO.C,U7*%
X174591500Y-104343600D03*
X174591500Y-106883600D03*
X183608500Y-106883600D03*
X183608500Y-104343600D03*
%TD*%
D12*
%TO.C,*%
X201500000Y-128500000D03*
%TD*%
D31*
%TO.C,C8*%
X165954000Y-115600000D03*
X165954000Y-123100000D03*
%TD*%
D23*
%TO.C,R5*%
X145726000Y-89474300D03*
X145726000Y-86549300D03*
%TD*%
D32*
%TO.C,REF\u002A\u002A*%
X189500000Y-121000000D03*
%TD*%
M02*
