%TF.GenerationSoftware,KiCad,Pcbnew,8.0.2*%
%TF.CreationDate,2024-06-08T15:50:04-05:00*%
%TF.ProjectId,kstars-ekos-smd,6b737461-7273-42d6-956b-6f732d736d64,rev?*%
%TF.SameCoordinates,Original*%
%TF.FileFunction,Copper,L1,Top*%
%TF.FilePolarity,Positive*%
%FSLAX46Y46*%
G04 Gerber Fmt 4.6, Leading zero omitted, Abs format (unit mm)*
G04 Created by KiCad (PCBNEW 8.0.2) date 2024-06-08 15:50:04*
%MOMM*%
%LPD*%
G01*
G04 APERTURE LIST*
G04 Aperture macros list*
%AMRoundRect*
0 Rectangle with rounded corners*
0 $1 Rounding radius*
0 $2 $3 $4 $5 $6 $7 $8 $9 X,Y pos of 4 corners*
0 Add a 4 corners polygon primitive as box body*
4,1,4,$2,$3,$4,$5,$6,$7,$8,$9,$2,$3,0*
0 Add four circle primitives for the rounded corners*
1,1,$1+$1,$2,$3*
1,1,$1+$1,$4,$5*
1,1,$1+$1,$6,$7*
1,1,$1+$1,$8,$9*
0 Add four rect primitives between the rounded corners*
20,1,$1+$1,$2,$3,$4,$5,0*
20,1,$1+$1,$4,$5,$6,$7,0*
20,1,$1+$1,$6,$7,$8,$9,0*
20,1,$1+$1,$8,$9,$2,$3,0*%
G04 Aperture macros list end*
%TA.AperFunction,Conductor*%
%ADD10C,0.152400*%
%TD*%
%TA.AperFunction,SMDPad,CuDef*%
%ADD11R,1.701800X1.397000*%
%TD*%
%TA.AperFunction,SMDPad,CuDef*%
%ADD12RoundRect,0.250000X0.325000X1.100000X-0.325000X1.100000X-0.325000X-1.100000X0.325000X-1.100000X0*%
%TD*%
%TA.AperFunction,ComponentPad*%
%ADD13O,1.700000X1.700000*%
%TD*%
%TA.AperFunction,ComponentPad*%
%ADD14R,1.700000X1.700000*%
%TD*%
%TA.AperFunction,SMDPad,CuDef*%
%ADD15RoundRect,0.250000X-0.312500X-1.075000X0.312500X-1.075000X0.312500X1.075000X-0.312500X1.075000X0*%
%TD*%
%TA.AperFunction,SMDPad,CuDef*%
%ADD16R,3.429000X2.413000*%
%TD*%
%TA.AperFunction,SMDPad,CuDef*%
%ADD17RoundRect,0.250000X1.100000X-0.325000X1.100000X0.325000X-1.100000X0.325000X-1.100000X-0.325000X0*%
%TD*%
%TA.AperFunction,SMDPad,CuDef*%
%ADD18RoundRect,1.125000X5.375000X1.125000X-5.375000X1.125000X-5.375000X-1.125000X5.375000X-1.125000X0*%
%TD*%
%TA.AperFunction,ComponentPad*%
%ADD19C,1.400000*%
%TD*%
%TA.AperFunction,SMDPad,CuDef*%
%ADD20R,0.889000X1.676400*%
%TD*%
%TA.AperFunction,SMDPad,CuDef*%
%ADD21R,0.863600X0.787400*%
%TD*%
%TA.AperFunction,SMDPad,CuDef*%
%ADD22R,0.355600X0.787400*%
%TD*%
%TA.AperFunction,SMDPad,CuDef*%
%ADD23RoundRect,0.250000X1.075000X-0.312500X1.075000X0.312500X-1.075000X0.312500X-1.075000X-0.312500X0*%
%TD*%
%TA.AperFunction,SMDPad,CuDef*%
%ADD24RoundRect,0.250000X-0.325000X-1.100000X0.325000X-1.100000X0.325000X1.100000X-0.325000X1.100000X0*%
%TD*%
%TA.AperFunction,SMDPad,CuDef*%
%ADD25RoundRect,0.250000X-1.100000X0.325000X-1.100000X-0.325000X1.100000X-0.325000X1.100000X0.325000X0*%
%TD*%
%TA.AperFunction,SMDPad,CuDef*%
%ADD26R,1.397000X0.355600*%
%TD*%
%TA.AperFunction,SMDPad,CuDef*%
%ADD27R,0.330200X0.609600*%
%TD*%
%TA.AperFunction,SMDPad,CuDef*%
%ADD28R,0.609600X0.330200*%
%TD*%
%TA.AperFunction,SMDPad,CuDef*%
%ADD29RoundRect,0.250000X0.312500X1.075000X-0.312500X1.075000X-0.312500X-1.075000X0.312500X-1.075000X0*%
%TD*%
%TA.AperFunction,SMDPad,CuDef*%
%ADD30RoundRect,0.250000X-0.712500X-2.475000X0.712500X-2.475000X0.712500X2.475000X-0.712500X2.475000X0*%
%TD*%
%TA.AperFunction,SMDPad,CuDef*%
%ADD31RoundRect,1.125000X-5.375000X-1.125000X5.375000X-1.125000X5.375000X1.125000X-5.375000X1.125000X0*%
%TD*%
%TA.AperFunction,ViaPad*%
%ADD32C,0.508000*%
%TD*%
%TA.AperFunction,ViaPad*%
%ADD33C,0.800000*%
%TD*%
%TA.AperFunction,ViaPad*%
%ADD34C,0.750000*%
%TD*%
%TA.AperFunction,Conductor*%
%ADD35C,0.500000*%
%TD*%
%TA.AperFunction,Conductor*%
%ADD36C,0.750000*%
%TD*%
%TA.AperFunction,Conductor*%
%ADD37C,0.250000*%
%TD*%
%TA.AperFunction,Conductor*%
%ADD38C,0.650000*%
%TD*%
G04 APERTURE END LIST*
D10*
%TO.N,Net-(U1-EN)*%
X148183600Y-97561400D02*
X150418800Y-94513400D01*
%TD*%
D11*
%TO.P,U2,1,1*%
%TO.N,DC1*%
X174591500Y-110143600D03*
%TO.P,U2,2,2*%
%TO.N,GND*%
X174591500Y-112683600D03*
%TO.P,U2,3,3*%
%TO.N,+12V*%
X183608500Y-112683600D03*
%TO.P,U2,4,4*%
%TO.N,Net-(C10-Positive)*%
X183608500Y-110143600D03*
%TD*%
%TO.P,U3,1,1*%
%TO.N,DC2*%
X174591500Y-115943600D03*
%TO.P,U3,2,2*%
%TO.N,GND*%
X174591500Y-118483600D03*
%TO.P,U3,3,3*%
%TO.N,+12V*%
X183608500Y-118483600D03*
%TO.P,U3,4,4*%
%TO.N,Net-(C11-Positive)*%
X183608500Y-115943600D03*
%TD*%
%TO.P,U5,1,1*%
%TO.N,DCX*%
X174591500Y-127543600D03*
%TO.P,U5,2,2*%
%TO.N,GND*%
X174591500Y-130083600D03*
%TO.P,U5,3,3*%
%TO.N,+12V*%
X183608500Y-130083600D03*
%TO.P,U5,4,4*%
%TO.N,Net-(H5-Pad1)*%
X183608500Y-127543600D03*
%TD*%
%TO.P,U6,1,1*%
%TO.N,DH1*%
X174591500Y-98543600D03*
%TO.P,U6,2,2*%
%TO.N,GND*%
X174591500Y-101083600D03*
%TO.P,U6,3,3*%
%TO.N,+12V*%
X183608500Y-101083600D03*
%TO.P,U6,4,4*%
%TO.N,Net-(C8-Positive)*%
X183608500Y-98543600D03*
%TD*%
D12*
%TO.P,C4,1*%
%TO.N,GND*%
X165827000Y-94486000D03*
%TO.P,C4,2*%
%TO.N,+5V*%
X162877000Y-94486000D03*
%TD*%
D13*
%TO.P,H2,1,1*%
%TO.N,+5V*%
X196342000Y-87752000D03*
D14*
%TO.P,H2,2,2*%
%TO.N,GND*%
X196342000Y-85212000D03*
%TD*%
D15*
%TO.P,R1,1*%
%TO.N,+12V*%
X145156980Y-97547000D03*
%TO.P,R1,2*%
%TO.N,Net-(U1-EN)*%
X148081980Y-97547000D03*
%TD*%
D13*
%TO.P,C9,1,Positive*%
%TO.N,Net-(C9-Positive)*%
X170254000Y-119400000D03*
D14*
%TO.P,C9,2,Ground*%
%TO.N,GND*%
X167714000Y-119400000D03*
%TD*%
D13*
%TO.P,C11,1,Positive*%
%TO.N,Net-(C11-Positive)*%
X193934000Y-103378000D03*
D14*
%TO.P,C11,2,Ground*%
%TO.N,GND*%
X196474000Y-103378000D03*
%TD*%
D16*
%TO.P,L1,1,1*%
%TO.N,Net-(U1-SW)*%
X158352000Y-94107000D03*
%TO.P,L1,2,2*%
%TO.N,+5V*%
X158352000Y-88265000D03*
%TD*%
D13*
%TO.P,H1,1,1*%
%TO.N,+5V*%
X193818000Y-87752000D03*
D14*
%TO.P,H1,2,2*%
%TO.N,GND*%
X193818000Y-85212000D03*
%TD*%
D13*
%TO.P,H4,1,1*%
%TO.N,+5V*%
X201390000Y-87752000D03*
D14*
%TO.P,H4,2,2*%
%TO.N,GND*%
X201390000Y-85212000D03*
%TD*%
D13*
%TO.P,C10,1,Positive*%
%TO.N,Net-(C10-Positive)*%
X193934000Y-118800000D03*
D14*
%TO.P,C10,2,Ground*%
%TO.N,GND*%
X196474000Y-118800000D03*
%TD*%
D12*
%TO.P,C6,1*%
%TO.N,GND*%
X165827000Y-91186000D03*
%TO.P,C6,2*%
%TO.N,+5V*%
X162877000Y-91186000D03*
%TD*%
D17*
%TO.P,C2,1*%
%TO.N,GND*%
X152726000Y-89486800D03*
%TO.P,C2,2*%
%TO.N,unconnected-(C2-Pad2)*%
X152726000Y-86536800D03*
%TD*%
D18*
%TO.P,C12,2,Ground*%
%TO.N,GND*%
X198000000Y-115000000D03*
%TO.P,C12,1,Positive*%
%TO.N,Net-(C12-Positive)*%
X198000000Y-122500000D03*
%TD*%
D13*
%TO.P,H5,1,1*%
%TO.N,Net-(H5-Pad1)*%
X193934000Y-129286000D03*
D14*
%TO.P,H5,2,2*%
%TO.N,GND*%
X196474000Y-129286000D03*
%TD*%
D19*
%TO.P,J1,*%
%TO.N,+5V*%
X148470000Y-78180000D03*
%TO.N,+3V3*%
X148470000Y-80720000D03*
%TO.N,+5V*%
X151010000Y-78180000D03*
%TO.N,SDA i2c*%
X151010000Y-80720000D03*
%TO.N,GND*%
X153550000Y-78180000D03*
%TO.N,SCL i2c*%
X153550000Y-80720000D03*
%TO.N,TXD*%
X156090000Y-78180000D03*
%TO.N,Net-(J1-GCLK0{slash}GPIO4)*%
X156090000Y-80720000D03*
%TO.N,RXD*%
X158630000Y-78180000D03*
%TO.N,GND*%
X158630000Y-80720000D03*
%TO.N,*%
X161170000Y-78180000D03*
X161170000Y-80720000D03*
%TO.N,GND*%
X163710000Y-78180000D03*
%TO.N,*%
X163710000Y-80720000D03*
%TO.N,DC_2*%
X166250000Y-78180000D03*
%TO.N,DC_1*%
X166250000Y-80720000D03*
%TO.N,DC_3*%
X168790000Y-78180000D03*
%TO.N,*%
X168790000Y-80720000D03*
%TO.N,GND*%
X171330000Y-78180000D03*
%TO.N,*%
X171330000Y-80720000D03*
X173870000Y-78180000D03*
X173870000Y-80720000D03*
X176410000Y-78180000D03*
X176410000Y-80720000D03*
X178950000Y-78180000D03*
%TO.N,GND*%
X178950000Y-80720000D03*
%TO.N,*%
X181490000Y-78180000D03*
X181490000Y-80720000D03*
%TO.N,GND*%
X184030000Y-78180000D03*
%TO.N,Net-(J1-GCLK1{slash}GPIO5)*%
X184030000Y-80720000D03*
%TO.N,Dew Heater 2*%
X186570000Y-78180000D03*
%TO.N,*%
X186570000Y-80720000D03*
%TO.N,GND*%
X189110000Y-78180000D03*
%TO.N,Dew Heater 1*%
X189110000Y-80720000D03*
%TO.N,*%
X191650000Y-78180000D03*
X191650000Y-80720000D03*
X194190000Y-78180000D03*
X194190000Y-80720000D03*
%TO.N,unconnected-(J1-GPIO21{slash}SCLK1-Pad40)*%
X196730000Y-78180000D03*
%TO.N,GND*%
X196730000Y-80720000D03*
D20*
%TO.P,J1,1,3V3*%
%TO.N,+3V3*%
X148470000Y-82167800D03*
%TO.P,J1,2,5V*%
%TO.N,+5V*%
X148470000Y-76732200D03*
%TO.P,J1,3,SDA/GPIO2*%
%TO.N,SDA i2c*%
X151010000Y-82167800D03*
%TO.P,J1,4,5V*%
%TO.N,+5V*%
X151010000Y-76732200D03*
%TO.P,J1,5,SCL/GPIO3*%
%TO.N,SCL i2c*%
X153550000Y-82167800D03*
%TO.P,J1,6,GND*%
%TO.N,GND*%
X153550000Y-76732200D03*
%TO.P,J1,7,GCLK0/GPIO4*%
%TO.N,Net-(J1-GCLK0{slash}GPIO4)*%
X156090000Y-82167800D03*
%TO.P,J1,8,GPIO14/TXD*%
%TO.N,TXD*%
X156090000Y-76732200D03*
%TO.P,J1,9,GND*%
%TO.N,GND*%
X158630000Y-82167800D03*
%TO.P,J1,10,GPIO15/RXD*%
%TO.N,RXD*%
X158630000Y-76732200D03*
%TO.P,J1,11,GPIO17*%
%TO.N,unconnected-(J1-GPIO17-Pad11)*%
X161170000Y-82167800D03*
%TO.P,J1,12,GPIO18/PWM0*%
%TO.N,unconnected-(J1-GPIO18{slash}PWM0-Pad12)*%
X161170000Y-76732200D03*
%TO.P,J1,13,GPIO27*%
%TO.N,unconnected-(J1-GPIO27-Pad13)*%
X163710000Y-82167800D03*
%TO.P,J1,14,GND*%
%TO.N,GND*%
X163710000Y-76732200D03*
%TO.P,J1,15,GPIO22*%
%TO.N,DC_1*%
X166250000Y-82167800D03*
%TO.P,J1,16,GPIO23*%
%TO.N,DC_2*%
X166250000Y-76732200D03*
%TO.P,J1,17,3V3*%
%TO.N,unconnected-(J1-3V3-Pad17)*%
X168790000Y-82167800D03*
%TO.P,J1,18,GPIO24*%
%TO.N,DC_3*%
X168790000Y-76732200D03*
%TO.P,J1,19,MOSI0/GPIO10*%
%TO.N,unconnected-(J1-MOSI0{slash}GPIO10-Pad19)*%
X171330000Y-82167800D03*
%TO.P,J1,20,GND*%
%TO.N,GND*%
X171330000Y-76732200D03*
%TO.P,J1,21,MISO0/GPIO9*%
%TO.N,unconnected-(J1-MISO0{slash}GPIO9-Pad21)*%
X173870000Y-82167800D03*
%TO.P,J1,22,GPIO25*%
%TO.N,DC_X*%
X173870000Y-76732200D03*
%TO.P,J1,23,SCLK0/GPIO11*%
%TO.N,unconnected-(J1-SCLK0{slash}GPIO11-Pad23)*%
X176410000Y-82167800D03*
%TO.P,J1,24,~{CE0}/GPIO8*%
%TO.N,unconnected-(J1-~{CE0}{slash}GPIO8-Pad24)*%
X176410000Y-76732200D03*
%TO.P,J1,25,GND*%
%TO.N,GND*%
X178950000Y-82167800D03*
%TO.P,J1,26,~{CE1}/GPIO7*%
%TO.N,unconnected-(J1-~{CE1}{slash}GPIO7-Pad26)*%
X178950000Y-76732200D03*
%TO.P,J1,27,ID_SD/GPIO0*%
%TO.N,unconnected-(J1-ID_SD{slash}GPIO0-Pad27)*%
X181490000Y-82167800D03*
%TO.P,J1,28,ID_SC/GPIO1*%
%TO.N,unconnected-(J1-ID_SC{slash}GPIO1-Pad28)*%
X181490000Y-76732200D03*
%TO.P,J1,29,GCLK1/GPIO5*%
%TO.N,Net-(J1-GCLK1{slash}GPIO5)*%
X184030000Y-82167800D03*
%TO.P,J1,30,GND*%
%TO.N,GND*%
X184030000Y-76732200D03*
%TO.P,J1,31,GCLK2/GPIO6*%
%TO.N,unconnected-(J1-GCLK2{slash}GPIO6-Pad31)*%
X186570000Y-82167800D03*
%TO.P,J1,32,PWM0/GPIO12*%
%TO.N,Dew Heater 2*%
X186570000Y-76732200D03*
%TO.P,J1,33,PWM1/GPIO13*%
%TO.N,Dew Heater 1*%
X189110000Y-82167800D03*
%TO.P,J1,34,GND*%
%TO.N,GND*%
X189110000Y-76732200D03*
%TO.P,J1,35,GPIO19/MISO1*%
%TO.N,unconnected-(J1-GPIO19{slash}MISO1-Pad35)*%
X191650000Y-82167800D03*
%TO.P,J1,36,GPIO16*%
%TO.N,unconnected-(J1-GPIO16-Pad36)*%
X191650000Y-76732200D03*
%TO.P,J1,37,GPIO26*%
%TO.N,unconnected-(J1-GPIO26-Pad37)*%
X194190000Y-82167800D03*
%TO.P,J1,38,GPIO20/MOSI1*%
%TO.N,unconnected-(J1-GPIO20{slash}MOSI1-Pad38)*%
X194190000Y-76732200D03*
%TO.P,J1,39,GND*%
%TO.N,GND*%
X196730000Y-82167800D03*
%TO.P,J1,40,GPIO21/SCLK1*%
%TO.N,unconnected-(J1-GPIO21{slash}SCLK1-Pad40)*%
X196730000Y-76732200D03*
%TD*%
D21*
%TO.P,R6,1*%
%TO.N,unconnected-(R6-Pad1)*%
X181081200Y-93099200D03*
D22*
%TO.P,R6,2*%
%TO.N,unconnected-(R6-Pad2)*%
X180333678Y-93099200D03*
%TO.P,R6,3*%
%TO.N,DC_X*%
X179840156Y-93099200D03*
%TO.P,R6,4*%
%TO.N,DC_3*%
X179346634Y-93099200D03*
%TO.P,R6,5*%
%TO.N,DC_2*%
X178853112Y-93099200D03*
%TO.P,R6,6*%
%TO.N,DC_1*%
X178359590Y-93099200D03*
%TO.P,R6,7*%
%TO.N,Dew Heater 2*%
X177866068Y-93099200D03*
D21*
%TO.P,R6,8*%
%TO.N,Dew Heater 1*%
X177118800Y-93099200D03*
%TO.P,R6,9*%
%TO.N,DH1*%
X177118800Y-94928000D03*
D22*
%TO.P,R6,10*%
%TO.N,DH2*%
X177866068Y-94928000D03*
%TO.P,R6,11*%
%TO.N,DC1*%
X178359590Y-94928000D03*
%TO.P,R6,12*%
%TO.N,DC2*%
X178853112Y-94928000D03*
%TO.P,R6,13*%
%TO.N,DC3*%
X179346634Y-94928000D03*
%TO.P,R6,14*%
%TO.N,DCX*%
X179840156Y-94928000D03*
%TO.P,R6,15*%
%TO.N,unconnected-(R6-Pad15)*%
X180333678Y-94928000D03*
D21*
%TO.P,R6,16*%
%TO.N,unconnected-(R6-Pad16)*%
X181081200Y-94928000D03*
%TD*%
D14*
%TO.P,J4,1,Pin_1*%
%TO.N,GND*%
X151100000Y-102474000D03*
D13*
%TO.P,J4,2,Pin_2*%
%TO.N,Net-(J1-GCLK0{slash}GPIO4)*%
X151100000Y-105014000D03*
%TO.P,J4,3,Pin_3*%
%TO.N,+3V3*%
X151100000Y-107554000D03*
%TD*%
D18*
%TO.P,C13,1,Positive*%
%TO.N,Net-(C13-Positive)*%
X198000000Y-107200000D03*
%TO.P,C13,2,Ground*%
%TO.N,GND*%
X198000000Y-99700000D03*
%TD*%
D17*
%TO.P,C5,1*%
%TO.N,+3V3*%
X157060000Y-104449000D03*
%TO.P,C5,2*%
%TO.N,GND*%
X157060000Y-101499000D03*
%TD*%
D14*
%TO.P,J3,1,Pin_1*%
%TO.N,GND*%
X146020000Y-102474000D03*
D13*
%TO.P,J3,2,Pin_2*%
%TO.N,TXD*%
X146020000Y-105014000D03*
%TO.P,J3,3,Pin_3*%
%TO.N,RXD*%
X146020000Y-107554000D03*
%TO.P,J3,4,Pin_4*%
%TO.N,+3V3*%
X146020000Y-110094000D03*
%TD*%
D23*
%TO.P,R4,1*%
%TO.N,Net-(U1-FB)*%
X149226000Y-89474300D03*
%TO.P,R4,2*%
%TO.N,GND*%
X149226000Y-86549300D03*
%TD*%
D24*
%TO.P,C3,1*%
%TO.N,Net-(U1-SW)*%
X150144480Y-97547000D03*
%TO.P,C3,2*%
%TO.N,Net-(U1-BST)*%
X153094480Y-97547000D03*
%TD*%
D25*
%TO.P,C1,1*%
%TO.N,GND*%
X147007000Y-91572000D03*
%TO.P,C1,2*%
%TO.N,+12V*%
X147007000Y-94522000D03*
%TD*%
D13*
%TO.P,H3,1,1*%
%TO.N,+5V*%
X198866000Y-87752000D03*
D14*
%TO.P,H3,2,2*%
%TO.N,GND*%
X198866000Y-85212000D03*
%TD*%
D26*
%TO.P,U1,1,PGND*%
%TO.N,GND*%
X150719500Y-92647000D03*
%TO.P,U1,2,VIN*%
%TO.N,+12V*%
X150719500Y-93647000D03*
D27*
%TO.P,U1,3,EN*%
%TO.N,Net-(U1-EN)*%
X150419489Y-94497000D03*
%TO.P,U1,4,MODE*%
%TO.N,unconnected-(U1-MODE-Pad4)*%
X150919490Y-94497000D03*
%TO.P,U1,5,FSEL*%
%TO.N,unconnected-(C2-Pad2)*%
X151419490Y-94497000D03*
%TO.P,U1,6,PG*%
X151919491Y-94497000D03*
D28*
%TO.P,U1,7,BST*%
%TO.N,Net-(U1-BST)*%
X152022666Y-93659701D03*
D26*
%TO.P,U1,8,SW*%
%TO.N,Net-(U1-SW)*%
X151619480Y-93147000D03*
D27*
%TO.P,U1,9,VCC*%
%TO.N,Net-(U1-VCC)*%
X151919491Y-91797000D03*
%TO.P,U1,10,SS/TR*%
%TO.N,unconnected-(U1-SS{slash}TR-Pad10)*%
X151419490Y-91797000D03*
%TO.P,U1,11,GND*%
%TO.N,GND*%
X150919490Y-91797000D03*
%TO.P,U1,12,FB*%
%TO.N,Net-(U1-FB)*%
X150419489Y-91797000D03*
%TD*%
D23*
%TO.P,R3,1*%
%TO.N,Net-(J1-GCLK0{slash}GPIO4)*%
X157060000Y-109436500D03*
%TO.P,R3,2*%
%TO.N,+3V3*%
X157060000Y-106511500D03*
%TD*%
D29*
%TO.P,R2,1*%
%TO.N,Net-(U1-VCC)*%
X158081980Y-97547000D03*
%TO.P,R2,2*%
%TO.N,unconnected-(C2-Pad2)*%
X155156980Y-97547000D03*
%TD*%
D30*
%TO.P,F1,1*%
%TO.N,+12V*%
X194612500Y-93218000D03*
%TO.P,F1,2*%
%TO.N,Net-(C13-Positive)*%
X201387500Y-93218000D03*
%TD*%
D14*
%TO.P,J6,1,Pin_1*%
%TO.N,GND*%
X143480000Y-102474000D03*
D13*
%TO.P,J6,2,Pin_2*%
%TO.N,SCL i2c*%
X143480000Y-105014000D03*
%TO.P,J6,3,Pin_3*%
%TO.N,SDA i2c*%
X143480000Y-107554000D03*
%TO.P,J6,4,Pin_4*%
%TO.N,+3V3*%
X143480000Y-110094000D03*
%TD*%
D14*
%TO.P,J2,1,Pin_1*%
%TO.N,GND*%
X153640000Y-102474000D03*
D13*
%TO.P,J2,2,Pin_2*%
%TO.N,Net-(J1-GCLK0{slash}GPIO4)*%
X153640000Y-105014000D03*
%TO.P,J2,3,Pin_3*%
%TO.N,+3V3*%
X153640000Y-107554000D03*
%TD*%
D12*
%TO.P,C7,1*%
%TO.N,GND*%
X165827000Y-87886000D03*
%TO.P,C7,2*%
%TO.N,+5V*%
X162877000Y-87886000D03*
%TD*%
D11*
%TO.P,U4,1,1*%
%TO.N,DC3*%
X174591500Y-121743600D03*
%TO.P,U4,2,2*%
%TO.N,GND*%
X174591500Y-124283600D03*
%TO.P,U4,3,3*%
%TO.N,+12V*%
X183608500Y-124283600D03*
%TO.P,U4,4,4*%
%TO.N,Net-(C12-Positive)*%
X183608500Y-121743600D03*
%TD*%
D14*
%TO.P,J5,1,Pin_1*%
%TO.N,GND*%
X148560000Y-102474000D03*
D13*
%TO.P,J5,2,Pin_2*%
%TO.N,Net-(J1-GCLK1{slash}GPIO5)*%
X148560000Y-105014000D03*
%TO.P,J5,3,Pin_3*%
%TO.N,unconnected-(J5-Pin_3-Pad3)*%
X148560000Y-107554000D03*
%TO.P,J5,4,Pin_4*%
%TO.N,+3V3*%
X148560000Y-110094000D03*
%TD*%
D11*
%TO.P,U7,1,1*%
%TO.N,DH2*%
X174591500Y-104343600D03*
%TO.P,U7,2,2*%
%TO.N,GND*%
X174591500Y-106883600D03*
%TO.P,U7,3,3*%
%TO.N,+12V*%
X183608500Y-106883600D03*
%TO.P,U7,4,4*%
%TO.N,Net-(C9-Positive)*%
X183608500Y-104343600D03*
%TD*%
D31*
%TO.P,C8,1,Positive*%
%TO.N,Net-(C8-Positive)*%
X165954000Y-115600000D03*
%TO.P,C8,2,Ground*%
%TO.N,GND*%
X165954000Y-123100000D03*
%TD*%
D23*
%TO.P,R5,1*%
%TO.N,+5V*%
X145726000Y-89474300D03*
%TO.P,R5,2*%
%TO.N,Net-(U1-FB)*%
X145726000Y-86549300D03*
%TD*%
D32*
%TO.N,GND*%
X165354000Y-123100000D03*
X174591500Y-112683600D03*
X194001000Y-100868000D03*
X161954000Y-124400000D03*
X199800000Y-115000000D03*
X196201000Y-100868000D03*
X198501000Y-100868000D03*
X195101000Y-98268000D03*
X194001000Y-99568000D03*
X198700000Y-115000000D03*
X196400000Y-113700000D03*
X192801000Y-99568000D03*
X197401000Y-100868000D03*
X167554000Y-121800000D03*
X195101000Y-99568000D03*
X197401000Y-98268000D03*
X198700000Y-113700000D03*
X198700000Y-116300000D03*
X199601000Y-100868000D03*
X166454000Y-123100000D03*
X170954000Y-124400000D03*
X192801000Y-100868000D03*
X165813000Y-94010000D03*
X200801000Y-100868000D03*
X197600000Y-115000000D03*
X169854000Y-123100000D03*
X199601000Y-99568000D03*
X170954000Y-121800000D03*
X203001000Y-98268000D03*
X164154000Y-121800000D03*
X165354000Y-124400000D03*
X196201000Y-98268000D03*
X169854000Y-121800000D03*
X201901000Y-100868000D03*
X194200000Y-113700000D03*
X161954000Y-121800000D03*
X194200000Y-115000000D03*
X194001000Y-98268000D03*
X195101000Y-100868000D03*
X170954000Y-123100000D03*
X195300000Y-116300000D03*
X160754000Y-121800000D03*
X203001000Y-99568000D03*
X196400000Y-115000000D03*
X160754000Y-124400000D03*
X167554000Y-124400000D03*
X174591500Y-130083600D03*
X165827000Y-87886000D03*
X202100000Y-113700000D03*
X199800000Y-113700000D03*
X174591500Y-124283600D03*
X203001000Y-100868000D03*
X197600000Y-116300000D03*
X195300000Y-115000000D03*
X202100000Y-115000000D03*
X201901000Y-98268000D03*
X174591500Y-106883600D03*
X168754000Y-124400000D03*
X167554000Y-123100000D03*
X201000000Y-116300000D03*
X164154000Y-124400000D03*
X199800000Y-116300000D03*
X200801000Y-99568000D03*
X203200000Y-113700000D03*
X203200000Y-115000000D03*
X163054000Y-123100000D03*
D33*
X146989800Y-91567000D03*
D32*
X196400000Y-116300000D03*
X157060000Y-101499000D03*
X193000000Y-116300000D03*
X195300000Y-113700000D03*
X174591500Y-118483600D03*
X202100000Y-116300000D03*
X169854000Y-124400000D03*
X165354000Y-121800000D03*
X194200000Y-116300000D03*
X168754000Y-123100000D03*
X197600000Y-113700000D03*
X203200000Y-116300000D03*
X166454000Y-121800000D03*
X200801000Y-98268000D03*
X201000000Y-113700000D03*
X192801000Y-98268000D03*
X168754000Y-121800000D03*
X174591500Y-101083600D03*
X161954000Y-123100000D03*
X198501000Y-99568000D03*
X199601000Y-98268000D03*
X193000000Y-113700000D03*
X198501000Y-98268000D03*
X152726000Y-89486800D03*
X201000000Y-115000000D03*
X160754000Y-123100000D03*
X165827000Y-91186000D03*
X201901000Y-99568000D03*
X197401000Y-99568000D03*
X196201000Y-99568000D03*
X163054000Y-121800000D03*
X149226000Y-86549300D03*
X166454000Y-124400000D03*
X163054000Y-124400000D03*
X164154000Y-123100000D03*
X193000000Y-115000000D03*
D34*
%TO.N,+12V*%
X194612500Y-93218000D03*
X167983018Y-95694382D03*
D32*
%TO.N,Net-(U1-VCC)*%
X154012900Y-92303600D03*
X154012900Y-93975351D03*
%TO.N,+5V*%
X145669000Y-89458800D03*
X148463000Y-76708000D03*
D34*
X158352000Y-88265000D03*
X162877000Y-87886000D03*
D32*
%TO.N,Net-(J1-GCLK0{slash}GPIO4)*%
X155168600Y-106603800D03*
X157073600Y-109440600D03*
%TO.N,unconnected-(C2-Pad2)*%
X151501500Y-90728800D03*
X151688800Y-95240500D03*
%TO.N,Net-(J1-GCLK1{slash}GPIO5)*%
X177741852Y-87704136D03*
X179349400Y-86106000D03*
%TO.N,RXD*%
X144754600Y-99491800D03*
%TO.N,Net-(U1-SW)*%
X150830500Y-95758000D03*
X153276649Y-93975351D03*
%TO.N,Net-(C13-Positive)*%
X195100000Y-107188000D03*
X196200000Y-108488000D03*
X197400000Y-108488000D03*
X200800000Y-108488000D03*
X196200000Y-105888000D03*
X199600000Y-108488000D03*
X195100000Y-108488000D03*
X192800000Y-105888000D03*
X201900000Y-107188000D03*
X192800000Y-108488000D03*
X194000000Y-105888000D03*
X203000000Y-108488000D03*
X194000000Y-107188000D03*
X195100000Y-105888000D03*
X201900000Y-108488000D03*
X194000000Y-108488000D03*
X192800000Y-107188000D03*
X197400000Y-105888000D03*
X199600000Y-105888000D03*
X198500000Y-107188000D03*
X198500000Y-108488000D03*
X200800000Y-107188000D03*
X198500000Y-105888000D03*
X197400000Y-107188000D03*
X203000000Y-107188000D03*
X201900000Y-105888000D03*
X199600000Y-107188000D03*
X203000000Y-105888000D03*
X200800000Y-105888000D03*
X196200000Y-107188000D03*
D34*
X201387500Y-93218000D03*
D32*
%TO.N,Net-(C12-Positive)*%
X197500000Y-121200000D03*
X199700000Y-121200000D03*
X192900000Y-121200000D03*
D33*
X185129400Y-121743600D03*
D32*
X203100000Y-121200000D03*
X203100000Y-123800000D03*
X200900000Y-122500000D03*
X196300000Y-121200000D03*
X198600000Y-122500000D03*
D34*
X187200000Y-123698000D03*
D32*
X195200000Y-122500000D03*
X197500000Y-123800000D03*
X195200000Y-121200000D03*
X196300000Y-123800000D03*
X202000000Y-123800000D03*
X199700000Y-123800000D03*
X200900000Y-121200000D03*
X195200000Y-123800000D03*
X203100000Y-122500000D03*
X202000000Y-121200000D03*
X202000000Y-122500000D03*
X194100000Y-121200000D03*
X192900000Y-123800000D03*
X194100000Y-123800000D03*
X197500000Y-122500000D03*
X194100000Y-122500000D03*
X198600000Y-123800000D03*
X200900000Y-123800000D03*
X199700000Y-122500000D03*
X192900000Y-122500000D03*
X198600000Y-121200000D03*
X196300000Y-122500000D03*
D34*
%TO.N,Net-(C11-Positive)*%
X187198000Y-113665000D03*
X184970600Y-115943600D03*
%TO.N,Net-(H5-Pad1)*%
X183515000Y-127635000D03*
%TO.N,Net-(C10-Positive)*%
X185012600Y-110143600D03*
X188148000Y-110109000D03*
D32*
%TO.N,Net-(C9-Positive)*%
X183608500Y-104343600D03*
%TO.N,Net-(C8-Positive)*%
X167554000Y-116900000D03*
X160754000Y-116900000D03*
X169854000Y-115600000D03*
X170954000Y-115600000D03*
X166454000Y-115600000D03*
X164154000Y-115600000D03*
X165354000Y-114300000D03*
X169854000Y-116900000D03*
X166454000Y-116900000D03*
X167554000Y-114300000D03*
X167554000Y-115600000D03*
X170954000Y-116900000D03*
X161954000Y-116900000D03*
X165354000Y-115600000D03*
X160754000Y-115600000D03*
X170954000Y-114300000D03*
X160754000Y-114300000D03*
X168754000Y-115600000D03*
X164154000Y-114300000D03*
X165354000Y-116900000D03*
X169854000Y-114300000D03*
X161954000Y-115600000D03*
X183608500Y-98543600D03*
X168754000Y-116900000D03*
X163054000Y-114300000D03*
X164154000Y-116900000D03*
X163054000Y-116900000D03*
X168754000Y-114300000D03*
X161954000Y-114300000D03*
X163054000Y-115600000D03*
X166454000Y-114300000D03*
D34*
%TO.N,Net-(C13-Positive)*%
X198000000Y-107200000D03*
%TD*%
D35*
%TO.N,GND*%
X150719500Y-92647000D02*
X148082000Y-92647000D01*
X148082000Y-92647000D02*
X147002000Y-91567000D01*
D10*
X150919490Y-92447010D02*
X150919490Y-91797000D01*
X150719500Y-92647000D02*
X150919490Y-92447010D01*
D36*
%TO.N,+12V*%
X186182000Y-108467703D02*
X184597897Y-106883600D01*
X184894000Y-124206000D02*
X183578500Y-124206000D01*
X183608500Y-112683600D02*
X185200600Y-112683600D01*
X192455800Y-93218000D02*
X194612500Y-93218000D01*
X186182000Y-119380000D02*
X186182000Y-122918000D01*
X185200600Y-112683600D02*
X186055000Y-113538000D01*
X183608500Y-101083600D02*
X186104900Y-101083600D01*
X186182000Y-111490976D02*
X186182000Y-108467703D01*
X185285600Y-118483600D02*
X186182000Y-119380000D01*
X185016400Y-130083600D02*
X183608500Y-130083600D01*
D35*
X147396000Y-94522000D02*
X148271000Y-93647000D01*
D36*
X186000000Y-125312000D02*
X186000000Y-129100000D01*
X184597897Y-106883600D02*
X183608500Y-106883600D01*
X167983018Y-95694382D02*
X163576000Y-100101400D01*
X186055000Y-117714200D02*
X185285600Y-118483600D01*
X184894000Y-124206000D02*
X186000000Y-125312000D01*
X145156980Y-98547980D02*
X145156980Y-95762020D01*
X163576000Y-100101400D02*
X146710400Y-100101400D01*
X145156980Y-95762020D02*
X146397000Y-94522000D01*
X183608500Y-112683600D02*
X184989376Y-112683600D01*
X186055000Y-113538000D02*
X186055000Y-117714200D01*
X186104900Y-101083600D02*
X186104900Y-99568900D01*
X183608500Y-106883600D02*
X184632200Y-106883600D01*
X184989376Y-112683600D02*
X186182000Y-111490976D01*
D35*
X148271000Y-93647000D02*
X150470980Y-93647000D01*
D36*
X186182000Y-122918000D02*
X184894000Y-124206000D01*
X146710400Y-100101400D02*
X145156980Y-98547980D01*
X186104900Y-99568900D02*
X192455800Y-93218000D01*
X186104900Y-105410900D02*
X186104900Y-101083600D01*
X184632200Y-106883600D02*
X186104900Y-105410900D01*
X183608500Y-118483600D02*
X185285600Y-118483600D01*
X186000000Y-129100000D02*
X185016400Y-130083600D01*
D10*
%TO.N,Net-(U1-VCC)*%
X153543000Y-91821000D02*
X151947995Y-91821000D01*
X154012900Y-93975351D02*
X154012900Y-94051551D01*
X154025600Y-92303600D02*
X153543000Y-91821000D01*
X154012900Y-94051551D02*
X157618000Y-97656651D01*
%TO.N,Dew Heater 2*%
X177866068Y-93624141D02*
X177866068Y-93099200D01*
X187960000Y-90170000D02*
X184360900Y-93769100D01*
X184360900Y-93769100D02*
X178011027Y-93769100D01*
X186611906Y-76841350D02*
X187960000Y-78189444D01*
X187960000Y-78189444D02*
X187960000Y-90170000D01*
X178011027Y-93769100D02*
X177866068Y-93624141D01*
%TO.N,Dew Heater 1*%
X189110000Y-82167800D02*
X189110000Y-89518368D01*
X177419000Y-94234000D02*
X177118800Y-93933800D01*
X177118800Y-93933800D02*
X177118800Y-93099200D01*
X184394368Y-94234000D02*
X177419000Y-94234000D01*
X189110000Y-89518368D02*
X184394368Y-94234000D01*
%TO.N,DC_X*%
X175006000Y-78740000D02*
X175768000Y-79502000D01*
X173988500Y-76579500D02*
X175006000Y-77597000D01*
X175768000Y-79502000D02*
X176812556Y-79502000D01*
X177800000Y-85319142D02*
X179840156Y-87359298D01*
X177800000Y-80489444D02*
X177800000Y-85319142D01*
X175006000Y-77597000D02*
X175006000Y-78740000D01*
X179840156Y-87359298D02*
X179840156Y-93099200D01*
X176812556Y-79502000D02*
X177800000Y-80489444D01*
%TO.N,DC_3*%
X171958000Y-79502000D02*
X172593000Y-80137000D01*
X172593000Y-80137000D02*
X172593000Y-83312000D01*
X170683844Y-79502000D02*
X171958000Y-79502000D01*
X168789350Y-76708000D02*
X170053000Y-77971650D01*
X179346634Y-87364144D02*
X179346634Y-93099200D01*
X170053000Y-77971650D02*
X170053000Y-78871156D01*
X172593000Y-83312000D02*
X174098000Y-84817000D01*
X174098000Y-84817000D02*
X176799490Y-84817000D01*
X176799490Y-84817000D02*
X179346634Y-87364144D01*
X170053000Y-78871156D02*
X170683844Y-79502000D01*
%TO.N,DC_2*%
X172240600Y-85169400D02*
X176653521Y-85169400D01*
X170053000Y-82981800D02*
X172240600Y-85169400D01*
X170053000Y-80264000D02*
X170053000Y-82981800D01*
X169291000Y-79502000D02*
X170053000Y-80264000D01*
X176653521Y-85169400D02*
X178866800Y-87382679D01*
X167386000Y-79502000D02*
X169291000Y-79502000D01*
X178866800Y-87382679D02*
X178866800Y-93085512D01*
X166284056Y-76833500D02*
X167386000Y-77935444D01*
X167386000Y-77935444D02*
X167386000Y-79502000D01*
%TO.N,DC_1*%
X178346188Y-87558655D02*
X178346188Y-93085798D01*
X166370000Y-82169000D02*
X169722800Y-85521800D01*
X176309333Y-85521800D02*
X178346188Y-87558655D01*
X169722800Y-85521800D02*
X176309333Y-85521800D01*
D36*
%TO.N,+5V*%
X148470000Y-76732200D02*
X151010000Y-76732200D01*
D35*
X196342000Y-87752000D02*
X198866000Y-87752000D01*
D36*
X158707600Y-87909400D02*
X162853600Y-87909400D01*
D35*
X198866000Y-87752000D02*
X201390000Y-87752000D01*
X162863000Y-87900000D02*
X162863000Y-94472000D01*
X193818000Y-87752000D02*
X196342000Y-87752000D01*
D10*
%TO.N,Net-(U1-FB)*%
X149226000Y-89474300D02*
X146301000Y-86549300D01*
X150419489Y-90667789D02*
X149226000Y-89474300D01*
X150419489Y-91797000D02*
X150419489Y-90667789D01*
%TO.N,Net-(J1-GCLK0{slash}GPIO4)*%
X155182852Y-106556852D02*
X153640000Y-105014000D01*
X155182852Y-106618790D02*
X155182852Y-106556852D01*
X156083000Y-82175350D02*
X153918950Y-84339400D01*
X143850704Y-84339400D02*
X142846400Y-85343704D01*
X147726400Y-106146600D02*
X149936200Y-106146600D01*
X145374600Y-100950000D02*
X147036000Y-100950000D01*
X142846400Y-85343704D02*
X142846400Y-98421800D01*
X153918950Y-84339400D02*
X143850704Y-84339400D01*
X147269200Y-105689400D02*
X147726400Y-106146600D01*
X147269200Y-101183200D02*
X147269200Y-105689400D01*
X149936200Y-106146600D02*
X151068800Y-105014000D01*
X147036000Y-100950000D02*
X147269200Y-101183200D01*
X142846400Y-98421800D02*
X145374600Y-100950000D01*
X153640000Y-105014000D02*
X151100000Y-105014000D01*
%TO.N,+3V3*%
X143266830Y-82929800D02*
X141436800Y-84759830D01*
X157073600Y-106497900D02*
X157073600Y-104579400D01*
D37*
X148560000Y-110094000D02*
X151100000Y-107554000D01*
X143540000Y-110094000D02*
X148560000Y-110094000D01*
D10*
X147959375Y-82929800D02*
X143266830Y-82929800D01*
X141436800Y-108050800D02*
X143480000Y-110094000D01*
X141436800Y-84759830D02*
X141436800Y-108050800D01*
X148466175Y-82423000D02*
X147959375Y-82929800D01*
D37*
X156017500Y-107554000D02*
X157060000Y-106511500D01*
X151100000Y-107554000D02*
X156017500Y-107554000D01*
D10*
%TO.N,unconnected-(C2-Pad2)*%
X151919491Y-95009809D02*
X151688800Y-95240500D01*
X151206200Y-90728800D02*
X150977600Y-90500200D01*
X152181600Y-99288600D02*
X154726900Y-99288600D01*
X155129500Y-98886000D02*
X155129500Y-97561000D01*
X151688800Y-95240500D02*
X151494000Y-95435300D01*
X151419490Y-94971190D02*
X151419490Y-94497000D01*
X151688800Y-95240500D02*
X151419490Y-94971190D01*
X151494000Y-95435300D02*
X151494000Y-98601000D01*
X154726900Y-99288600D02*
X155129500Y-98886000D01*
X150977600Y-90500200D02*
X150977600Y-88341200D01*
X151919491Y-94497000D02*
X151919491Y-95009809D01*
X151501500Y-90728800D02*
X151206200Y-90728800D01*
X150977600Y-88341200D02*
X152782000Y-86536800D01*
X151494000Y-98601000D02*
X152181600Y-99288600D01*
%TO.N,SDA i2c*%
X141789200Y-84905799D02*
X141789200Y-105863200D01*
X150023150Y-83282200D02*
X143412799Y-83282200D01*
X143412799Y-83282200D02*
X141789200Y-84905799D01*
X151003000Y-82302350D02*
X150023150Y-83282200D01*
X141789200Y-105863200D02*
X143480000Y-107554000D01*
%TO.N,Net-(J1-GCLK1{slash}GPIO5)*%
X181559200Y-83896200D02*
X182429150Y-83896200D01*
X155413114Y-102989000D02*
X154668514Y-103733600D01*
X154668514Y-103733600D02*
X149840400Y-103733600D01*
X162441000Y-102989000D02*
X155413114Y-102989000D01*
X182429150Y-83896200D02*
X184150000Y-82175350D01*
X149840400Y-103733600D02*
X148560000Y-105014000D01*
X177725864Y-87704136D02*
X162441000Y-102989000D01*
X179349400Y-86106000D02*
X181559200Y-83896200D01*
X177741852Y-87704136D02*
X177725864Y-87704136D01*
%TO.N,RXD*%
X144754600Y-99491800D02*
X143198800Y-97936000D01*
X157353000Y-78076444D02*
X158600794Y-76828650D01*
X143198800Y-85489672D02*
X143996672Y-84691800D01*
X157353000Y-83421914D02*
X157353000Y-78076444D01*
X143198800Y-97936000D02*
X143198800Y-85489672D01*
X143996672Y-84691800D02*
X156083114Y-84691800D01*
X156083114Y-84691800D02*
X157353000Y-83421914D01*
%TO.N,TXD*%
X142494000Y-98602800D02*
X144780000Y-100888800D01*
X156083000Y-76714350D02*
X154813000Y-77984350D01*
X153565900Y-83987000D02*
X143704736Y-83987000D01*
X144780000Y-103774000D02*
X146020000Y-105014000D01*
X154813000Y-82739900D02*
X153565900Y-83987000D01*
X142494000Y-85197735D02*
X142494000Y-98602800D01*
X144780000Y-100888800D02*
X144780000Y-103774000D01*
X154813000Y-77984350D02*
X154813000Y-82739900D01*
X143704736Y-83987000D02*
X142494000Y-85197735D01*
%TO.N,SCL i2c*%
X152210750Y-83634600D02*
X143558767Y-83634600D01*
X153543000Y-82302350D02*
X152210750Y-83634600D01*
X142141600Y-103675600D02*
X143480000Y-105014000D01*
X142141600Y-85051767D02*
X142141600Y-103675600D01*
X143558767Y-83634600D02*
X142141600Y-85051767D01*
D35*
%TO.N,Net-(U1-SW)*%
X151619480Y-93147000D02*
X153272000Y-93147000D01*
D10*
X153272000Y-93970702D02*
X153272000Y-93147000D01*
D35*
X153276649Y-93975351D02*
X153272000Y-93970702D01*
D10*
X150830500Y-95758000D02*
X150037000Y-96551500D01*
D35*
X153272000Y-93147000D02*
X157392000Y-93147000D01*
D10*
%TO.N,Net-(U1-BST)*%
X152987000Y-94624035D02*
X152987000Y-97561000D01*
X152022666Y-93659701D02*
X152987000Y-94624035D01*
D36*
%TO.N,Net-(C12-Positive)*%
X183608500Y-121743600D02*
X185129400Y-121743600D01*
X187200000Y-123698000D02*
X187200000Y-128800000D01*
X187200000Y-128800000D02*
X188700000Y-130300000D01*
X190345050Y-130300000D02*
X191300000Y-129345050D01*
X191300000Y-129345050D02*
X191300000Y-127400000D01*
X191300000Y-127400000D02*
X196200000Y-122500000D01*
X188700000Y-130300000D02*
X190345050Y-130300000D01*
%TO.N,Net-(C11-Positive)*%
X187198000Y-113665000D02*
X187198000Y-106857800D01*
X190677800Y-103378000D02*
X193934000Y-103378000D01*
X184970600Y-115943600D02*
X183608500Y-115943600D01*
X187198000Y-106857800D02*
X190677800Y-103378000D01*
%TO.N,Net-(C10-Positive)*%
X192500000Y-118800000D02*
X193934000Y-118800000D01*
X191050000Y-117350000D02*
X192500000Y-118800000D01*
D38*
X191050000Y-112050000D02*
X191050000Y-117350000D01*
D36*
X189109000Y-110109000D02*
X191050000Y-112050000D01*
X188148000Y-110109000D02*
X189109000Y-110109000D01*
X185012600Y-110143600D02*
X183608500Y-110143600D01*
D10*
%TO.N,DH1*%
X177118800Y-96312200D02*
X174887400Y-98543600D01*
X177118800Y-94928000D02*
X177118800Y-96312200D01*
%TO.N,DH2*%
X176022000Y-102997000D02*
X174625000Y-104394000D01*
X177866068Y-94928000D02*
X177866068Y-96707932D01*
X177866068Y-96707932D02*
X176022000Y-98552000D01*
X176022000Y-98552000D02*
X176022000Y-102997000D01*
%TO.N,DC2*%
X174626100Y-115951000D02*
X176149000Y-115951000D01*
X176520369Y-108713100D02*
X176726800Y-108506669D01*
X178853112Y-96717624D02*
X178853112Y-94928000D01*
X176726800Y-108506669D02*
X176726800Y-98843936D01*
X176149000Y-115951000D02*
X176149000Y-109084468D01*
X176520368Y-108713100D02*
X176520369Y-108713100D01*
X176726800Y-98843936D02*
X178853112Y-96717624D01*
X176149000Y-109084468D02*
X176520368Y-108713100D01*
%TO.N,DCX*%
X177431600Y-108798607D02*
X177165000Y-109065207D01*
X179840156Y-94928000D02*
X179840156Y-96727316D01*
X177165000Y-109065207D02*
X177165000Y-124970100D01*
X177431600Y-99135872D02*
X177431600Y-108798607D01*
X177165000Y-124970100D02*
X174591500Y-127543600D01*
X179840156Y-96727316D02*
X177431600Y-99135872D01*
%TO.N,DC1*%
X176374400Y-108360700D02*
X174591500Y-110143600D01*
X176374400Y-98697968D02*
X176374400Y-108360700D01*
X178359590Y-94928000D02*
X178359590Y-96712778D01*
X178359590Y-96712778D02*
X176374400Y-98697968D01*
%TO.N,DC3*%
X176784000Y-119443500D02*
X174561500Y-121666000D01*
X176784000Y-108947838D02*
X176784000Y-119443500D01*
X179346634Y-94928000D02*
X179346634Y-96722470D01*
X177079200Y-108652638D02*
X176784000Y-108947838D01*
X179346634Y-96722470D02*
X177079200Y-98989904D01*
X177079200Y-98989904D02*
X177079200Y-108652638D01*
%TD*%
%TA.AperFunction,Conductor*%
%TO.N,GND*%
G36*
X147279322Y-91294016D02*
G01*
X147280617Y-91295564D01*
X147469883Y-91566293D01*
X147668111Y-91849843D01*
X147731528Y-91940555D01*
X147733460Y-91949299D01*
X147730212Y-91955532D01*
X147390386Y-92295358D01*
X147382113Y-92298785D01*
X147375612Y-92296812D01*
X146718775Y-91857743D01*
X146713802Y-91850297D01*
X146715551Y-91841515D01*
X146716980Y-91839769D01*
X146989093Y-91566293D01*
X147262777Y-91293973D01*
X147271057Y-91290568D01*
X147279322Y-91294016D01*
G37*
%TD.AperFunction*%
%TD*%
%TA.AperFunction,Conductor*%
%TO.N,Net-(U1-VCC)*%
G36*
X153722601Y-91888868D02*
G01*
X153943403Y-91991472D01*
X154099968Y-92064226D01*
X154106026Y-92070820D01*
X154105863Y-92079274D01*
X154015464Y-92299776D01*
X154009155Y-92306131D01*
X154009076Y-92306164D01*
X153788976Y-92396398D01*
X153780021Y-92396365D01*
X153773748Y-92390095D01*
X153610455Y-92000425D01*
X153610419Y-91991472D01*
X153612972Y-91987634D01*
X153709401Y-91891205D01*
X153717673Y-91887779D01*
X153722601Y-91888868D01*
G37*
%TD.AperFunction*%
%TD*%
%TA.AperFunction,Conductor*%
%TO.N,Net-(U1-VCC)*%
G36*
X154244654Y-93883046D02*
G01*
X154250963Y-93889401D01*
X154251323Y-93890410D01*
X154378249Y-94304473D01*
X154377398Y-94313387D01*
X154375336Y-94316175D01*
X154278937Y-94412574D01*
X154270664Y-94416001D01*
X154264753Y-94414398D01*
X154166224Y-94356706D01*
X153924466Y-94215149D01*
X153919058Y-94208011D01*
X153919551Y-94200615D01*
X154010336Y-93979172D01*
X154016643Y-93972819D01*
X154235700Y-93883013D01*
X154244654Y-93883046D01*
G37*
%TD.AperFunction*%
%TD*%
%TA.AperFunction,Conductor*%
%TO.N,+5V*%
G36*
X163237961Y-87885962D02*
G01*
X163246224Y-87889411D01*
X163249629Y-87897693D01*
X163249432Y-87899802D01*
X163114778Y-88623655D01*
X163109896Y-88631162D01*
X163103275Y-88633215D01*
X162623090Y-88633215D01*
X162614817Y-88629788D01*
X162611517Y-88623234D01*
X162503988Y-87899382D01*
X162506162Y-87890695D01*
X162513842Y-87886090D01*
X162515517Y-87885963D01*
X162877000Y-87885000D01*
X163237961Y-87885962D01*
G37*
%TD.AperFunction*%
%TD*%
%TA.AperFunction,Conductor*%
%TO.N,Net-(J1-GCLK0{slash}GPIO4)*%
G36*
X154907667Y-106170472D02*
G01*
X155184688Y-106324139D01*
X155256705Y-106364089D01*
X155262278Y-106371099D01*
X155261856Y-106378758D01*
X155171164Y-106599976D01*
X155164855Y-106606331D01*
X155164776Y-106606364D01*
X154945529Y-106696248D01*
X154936574Y-106696215D01*
X154930265Y-106689860D01*
X154929987Y-106689108D01*
X154902513Y-106606331D01*
X154794470Y-106280810D01*
X154795116Y-106271880D01*
X154797298Y-106268856D01*
X154893724Y-106172430D01*
X154901996Y-106169004D01*
X154907667Y-106170472D01*
G37*
%TD.AperFunction*%
%TD*%
%TA.AperFunction,Conductor*%
%TO.N,unconnected-(C2-Pad2)*%
G36*
X151990668Y-94831482D02*
G01*
X151994095Y-94839755D01*
X151994000Y-94841243D01*
X151944104Y-95230328D01*
X151939653Y-95238098D01*
X151932545Y-95240540D01*
X151693691Y-95241480D01*
X151685405Y-95238086D01*
X151519020Y-95070775D01*
X151515617Y-95062494D01*
X151519067Y-95054230D01*
X151520621Y-95052931D01*
X151840276Y-94830155D01*
X151846966Y-94828055D01*
X151982395Y-94828055D01*
X151990668Y-94831482D01*
G37*
%TD.AperFunction*%
%TD*%
%TA.AperFunction,Conductor*%
%TO.N,unconnected-(C2-Pad2)*%
G36*
X151692193Y-95242912D02*
G01*
X151692250Y-95242969D01*
X151859381Y-95411031D01*
X151862785Y-95419313D01*
X151859335Y-95427577D01*
X151858561Y-95428281D01*
X151573450Y-95665112D01*
X151565974Y-95667812D01*
X151429975Y-95667812D01*
X151421702Y-95664385D01*
X151418275Y-95656112D01*
X151418284Y-95655647D01*
X151427357Y-95427577D01*
X151434354Y-95251688D01*
X151438107Y-95243560D01*
X151445996Y-95240455D01*
X151683908Y-95239519D01*
X151692193Y-95242912D01*
G37*
%TD.AperFunction*%
%TD*%
%TA.AperFunction,Conductor*%
%TO.N,unconnected-(C2-Pad2)*%
G36*
X151498345Y-94845531D02*
G01*
X151776914Y-95000770D01*
X151782473Y-95007791D01*
X151782035Y-95015451D01*
X151690661Y-95236986D01*
X151684339Y-95243328D01*
X151684283Y-95243351D01*
X151466953Y-95332446D01*
X151457998Y-95332413D01*
X151451689Y-95326058D01*
X151451099Y-95324183D01*
X151432533Y-95241500D01*
X151346493Y-94858315D01*
X151348024Y-94849492D01*
X151355346Y-94844336D01*
X151357909Y-94844052D01*
X151492651Y-94844052D01*
X151498345Y-94845531D01*
G37*
%TD.AperFunction*%
%TD*%
%TA.AperFunction,Conductor*%
%TO.N,unconnected-(C2-Pad2)*%
G36*
X151497002Y-90478824D02*
G01*
X151501443Y-90486600D01*
X151501536Y-90488041D01*
X151502193Y-90724614D01*
X151498789Y-90732896D01*
X151498734Y-90732952D01*
X151329581Y-90900778D01*
X151321294Y-90904172D01*
X151313696Y-90901330D01*
X151313056Y-90900778D01*
X151194534Y-90798499D01*
X151011450Y-90640506D01*
X151007426Y-90632506D01*
X151010236Y-90624004D01*
X151010807Y-90623389D01*
X151106850Y-90527346D01*
X151113647Y-90524013D01*
X151488365Y-90476466D01*
X151497002Y-90478824D01*
G37*
%TD.AperFunction*%
%TD*%
%TA.AperFunction,Conductor*%
%TO.N,Net-(J1-GCLK1{slash}GPIO5)*%
G36*
X177517475Y-87611151D02*
G01*
X177738028Y-87701571D01*
X177744383Y-87707880D01*
X177744416Y-87707959D01*
X177834627Y-87928003D01*
X177834594Y-87936958D01*
X177828266Y-87943255D01*
X177437337Y-88104663D01*
X177428382Y-88104653D01*
X177424599Y-88102122D01*
X177328170Y-88005693D01*
X177324743Y-87997420D01*
X177325855Y-87992442D01*
X177502454Y-87616996D01*
X177509074Y-87610970D01*
X177517475Y-87611151D01*
G37*
%TD.AperFunction*%
%TD*%
%TA.AperFunction,Conductor*%
%TO.N,Net-(J1-GCLK1{slash}GPIO5)*%
G36*
X179660403Y-85698584D02*
G01*
X179756815Y-85794996D01*
X179760242Y-85803269D01*
X179759238Y-85808010D01*
X179588674Y-86192802D01*
X179582189Y-86198977D01*
X179573540Y-86198887D01*
X179353223Y-86108564D01*
X179346868Y-86102255D01*
X179346835Y-86102176D01*
X179256512Y-85881857D01*
X179256545Y-85872904D01*
X179262596Y-85866725D01*
X179647391Y-85696160D01*
X179656341Y-85695941D01*
X179660403Y-85698584D01*
G37*
%TD.AperFunction*%
%TD*%
%TA.AperFunction,Conductor*%
%TO.N,RXD*%
G36*
X144456607Y-99081960D02*
G01*
X144841402Y-99252525D01*
X144847577Y-99259010D01*
X144847487Y-99267659D01*
X144757164Y-99487976D01*
X144750855Y-99494331D01*
X144750776Y-99494364D01*
X144530459Y-99584687D01*
X144521504Y-99584654D01*
X144515325Y-99578602D01*
X144344760Y-99193808D01*
X144344541Y-99184858D01*
X144347182Y-99180798D01*
X144443597Y-99084383D01*
X144451869Y-99080957D01*
X144456607Y-99081960D01*
G37*
%TD.AperFunction*%
%TD*%
%TA.AperFunction,Conductor*%
%TO.N,Net-(U1-SW)*%
G36*
X153348537Y-93471703D02*
G01*
X153351133Y-93475648D01*
X153507063Y-93867467D01*
X153506938Y-93876421D01*
X153500709Y-93882586D01*
X153281166Y-93974460D01*
X153272211Y-93974493D01*
X153272132Y-93974460D01*
X153052381Y-93882500D01*
X153046072Y-93876145D01*
X153045944Y-93867596D01*
X153045993Y-93867467D01*
X153192952Y-93475864D01*
X153199067Y-93469324D01*
X153203906Y-93468276D01*
X153340264Y-93468276D01*
X153348537Y-93471703D01*
G37*
%TD.AperFunction*%
%TD*%
%TA.AperFunction,Conductor*%
%TO.N,Net-(U1-SW)*%
G36*
X150606357Y-95665111D02*
G01*
X150826676Y-95755435D01*
X150833031Y-95761744D01*
X150833064Y-95761823D01*
X150923387Y-95982140D01*
X150923354Y-95991095D01*
X150917302Y-95997274D01*
X150532510Y-96167838D01*
X150523558Y-96168058D01*
X150519496Y-96165415D01*
X150423084Y-96069003D01*
X150419657Y-96060730D01*
X150420659Y-96055993D01*
X150591225Y-95671196D01*
X150597710Y-95665022D01*
X150606357Y-95665111D01*
G37*
%TD.AperFunction*%
%TD*%
M02*
