%TF.GenerationSoftware,KiCad,Pcbnew,8.0.2*%
%TF.CreationDate,2024-06-08T15:50:05-05:00*%
%TF.ProjectId,kstars-ekos-smd,6b737461-7273-42d6-956b-6f732d736d64,rev?*%
%TF.SameCoordinates,Original*%
%TF.FileFunction,Legend,Top*%
%TF.FilePolarity,Positive*%
%FSLAX46Y46*%
G04 Gerber Fmt 4.6, Leading zero omitted, Abs format (unit mm)*
G04 Created by KiCad (PCBNEW 8.0.2) date 2024-06-08 15:50:05*
%MOMM*%
%LPD*%
G01*
G04 APERTURE LIST*
%ADD10C,0.100000*%
%ADD11C,0.150000*%
%ADD12C,0.152400*%
%ADD13C,0.120000*%
%ADD14C,0.254000*%
G04 APERTURE END LIST*
D10*
X153948819Y-113767952D02*
X153948819Y-114339380D01*
X153948819Y-114053666D02*
X152948819Y-114053666D01*
X152948819Y-114053666D02*
X153091676Y-114148904D01*
X153091676Y-114148904D02*
X153186914Y-114244142D01*
X153186914Y-114244142D02*
X153234533Y-114339380D01*
X153567866Y-113339380D02*
X153567866Y-112577476D01*
X152948819Y-112196523D02*
X153948819Y-111958428D01*
X153948819Y-111958428D02*
X153234533Y-111767952D01*
X153234533Y-111767952D02*
X153948819Y-111577476D01*
X153948819Y-111577476D02*
X152948819Y-111339381D01*
X153948819Y-110958428D02*
X153282152Y-110958428D01*
X152948819Y-110958428D02*
X152996438Y-111006047D01*
X152996438Y-111006047D02*
X153044057Y-110958428D01*
X153044057Y-110958428D02*
X152996438Y-110910809D01*
X152996438Y-110910809D02*
X152948819Y-110958428D01*
X152948819Y-110958428D02*
X153044057Y-110958428D01*
X153948819Y-110482238D02*
X153282152Y-110482238D01*
X153472628Y-110482238D02*
X153377390Y-110434619D01*
X153377390Y-110434619D02*
X153329771Y-110387000D01*
X153329771Y-110387000D02*
X153282152Y-110291762D01*
X153282152Y-110291762D02*
X153282152Y-110196524D01*
X153901200Y-109482238D02*
X153948819Y-109577476D01*
X153948819Y-109577476D02*
X153948819Y-109767952D01*
X153948819Y-109767952D02*
X153901200Y-109863190D01*
X153901200Y-109863190D02*
X153805961Y-109910809D01*
X153805961Y-109910809D02*
X153425009Y-109910809D01*
X153425009Y-109910809D02*
X153329771Y-109863190D01*
X153329771Y-109863190D02*
X153282152Y-109767952D01*
X153282152Y-109767952D02*
X153282152Y-109577476D01*
X153282152Y-109577476D02*
X153329771Y-109482238D01*
X153329771Y-109482238D02*
X153425009Y-109434619D01*
X153425009Y-109434619D02*
X153520247Y-109434619D01*
X153520247Y-109434619D02*
X153615485Y-109910809D01*
X145579638Y-114049085D02*
X145532019Y-114144323D01*
X145532019Y-114144323D02*
X145532019Y-114287180D01*
X145532019Y-114287180D02*
X145579638Y-114430037D01*
X145579638Y-114430037D02*
X145674876Y-114525275D01*
X145674876Y-114525275D02*
X145770114Y-114572894D01*
X145770114Y-114572894D02*
X145960590Y-114620513D01*
X145960590Y-114620513D02*
X146103447Y-114620513D01*
X146103447Y-114620513D02*
X146293923Y-114572894D01*
X146293923Y-114572894D02*
X146389161Y-114525275D01*
X146389161Y-114525275D02*
X146484400Y-114430037D01*
X146484400Y-114430037D02*
X146532019Y-114287180D01*
X146532019Y-114287180D02*
X146532019Y-114191942D01*
X146532019Y-114191942D02*
X146484400Y-114049085D01*
X146484400Y-114049085D02*
X146436780Y-114001466D01*
X146436780Y-114001466D02*
X146103447Y-114001466D01*
X146103447Y-114001466D02*
X146103447Y-114191942D01*
X146532019Y-113572894D02*
X145532019Y-113572894D01*
X145532019Y-113572894D02*
X145532019Y-113191942D01*
X145532019Y-113191942D02*
X145579638Y-113096704D01*
X145579638Y-113096704D02*
X145627257Y-113049085D01*
X145627257Y-113049085D02*
X145722495Y-113001466D01*
X145722495Y-113001466D02*
X145865352Y-113001466D01*
X145865352Y-113001466D02*
X145960590Y-113049085D01*
X145960590Y-113049085D02*
X146008209Y-113096704D01*
X146008209Y-113096704D02*
X146055828Y-113191942D01*
X146055828Y-113191942D02*
X146055828Y-113572894D01*
X146484400Y-112620513D02*
X146532019Y-112477656D01*
X146532019Y-112477656D02*
X146532019Y-112239561D01*
X146532019Y-112239561D02*
X146484400Y-112144323D01*
X146484400Y-112144323D02*
X146436780Y-112096704D01*
X146436780Y-112096704D02*
X146341542Y-112049085D01*
X146341542Y-112049085D02*
X146246304Y-112049085D01*
X146246304Y-112049085D02*
X146151066Y-112096704D01*
X146151066Y-112096704D02*
X146103447Y-112144323D01*
X146103447Y-112144323D02*
X146055828Y-112239561D01*
X146055828Y-112239561D02*
X146008209Y-112430037D01*
X146008209Y-112430037D02*
X145960590Y-112525275D01*
X145960590Y-112525275D02*
X145912971Y-112572894D01*
X145912971Y-112572894D02*
X145817733Y-112620513D01*
X145817733Y-112620513D02*
X145722495Y-112620513D01*
X145722495Y-112620513D02*
X145627257Y-112572894D01*
X145627257Y-112572894D02*
X145579638Y-112525275D01*
X145579638Y-112525275D02*
X145532019Y-112430037D01*
X145532019Y-112430037D02*
X145532019Y-112191942D01*
X145532019Y-112191942D02*
X145579638Y-112049085D01*
X190515419Y-87677476D02*
X190515419Y-88153666D01*
X190515419Y-88153666D02*
X190991609Y-88201285D01*
X190991609Y-88201285D02*
X190943990Y-88153666D01*
X190943990Y-88153666D02*
X190896371Y-88058428D01*
X190896371Y-88058428D02*
X190896371Y-87820333D01*
X190896371Y-87820333D02*
X190943990Y-87725095D01*
X190943990Y-87725095D02*
X190991609Y-87677476D01*
X190991609Y-87677476D02*
X191086847Y-87629857D01*
X191086847Y-87629857D02*
X191324942Y-87629857D01*
X191324942Y-87629857D02*
X191420180Y-87677476D01*
X191420180Y-87677476D02*
X191467800Y-87725095D01*
X191467800Y-87725095D02*
X191515419Y-87820333D01*
X191515419Y-87820333D02*
X191515419Y-88058428D01*
X191515419Y-88058428D02*
X191467800Y-88153666D01*
X191467800Y-88153666D02*
X191420180Y-88201285D01*
X190515419Y-87344142D02*
X191515419Y-87010809D01*
X191515419Y-87010809D02*
X190515419Y-86677476D01*
X191515419Y-86344142D02*
X190515419Y-86344142D01*
X190515419Y-86344142D02*
X190515419Y-86106047D01*
X190515419Y-86106047D02*
X190563038Y-85963190D01*
X190563038Y-85963190D02*
X190658276Y-85867952D01*
X190658276Y-85867952D02*
X190753514Y-85820333D01*
X190753514Y-85820333D02*
X190943990Y-85772714D01*
X190943990Y-85772714D02*
X191086847Y-85772714D01*
X191086847Y-85772714D02*
X191277323Y-85820333D01*
X191277323Y-85820333D02*
X191372561Y-85867952D01*
X191372561Y-85867952D02*
X191467800Y-85963190D01*
X191467800Y-85963190D02*
X191515419Y-86106047D01*
X191515419Y-86106047D02*
X191515419Y-86344142D01*
X191420180Y-84772714D02*
X191467800Y-84820333D01*
X191467800Y-84820333D02*
X191515419Y-84963190D01*
X191515419Y-84963190D02*
X191515419Y-85058428D01*
X191515419Y-85058428D02*
X191467800Y-85201285D01*
X191467800Y-85201285D02*
X191372561Y-85296523D01*
X191372561Y-85296523D02*
X191277323Y-85344142D01*
X191277323Y-85344142D02*
X191086847Y-85391761D01*
X191086847Y-85391761D02*
X190943990Y-85391761D01*
X190943990Y-85391761D02*
X190753514Y-85344142D01*
X190753514Y-85344142D02*
X190658276Y-85296523D01*
X190658276Y-85296523D02*
X190563038Y-85201285D01*
X190563038Y-85201285D02*
X190515419Y-85058428D01*
X190515419Y-85058428D02*
X190515419Y-84963190D01*
X190515419Y-84963190D02*
X190563038Y-84820333D01*
X190563038Y-84820333D02*
X190610657Y-84772714D01*
X149199019Y-116266647D02*
X148199019Y-116266647D01*
X148199019Y-116266647D02*
X148199019Y-116028552D01*
X148199019Y-116028552D02*
X148246638Y-115885695D01*
X148246638Y-115885695D02*
X148341876Y-115790457D01*
X148341876Y-115790457D02*
X148437114Y-115742838D01*
X148437114Y-115742838D02*
X148627590Y-115695219D01*
X148627590Y-115695219D02*
X148770447Y-115695219D01*
X148770447Y-115695219D02*
X148960923Y-115742838D01*
X148960923Y-115742838D02*
X149056161Y-115790457D01*
X149056161Y-115790457D02*
X149151400Y-115885695D01*
X149151400Y-115885695D02*
X149199019Y-116028552D01*
X149199019Y-116028552D02*
X149199019Y-116266647D01*
X149199019Y-115266647D02*
X148199019Y-115266647D01*
X148675209Y-115266647D02*
X148675209Y-114695219D01*
X149199019Y-114695219D02*
X148199019Y-114695219D01*
X148199019Y-114361885D02*
X148199019Y-113790457D01*
X149199019Y-114076171D02*
X148199019Y-114076171D01*
X148294257Y-113504742D02*
X148246638Y-113457123D01*
X148246638Y-113457123D02*
X148199019Y-113361885D01*
X148199019Y-113361885D02*
X148199019Y-113123790D01*
X148199019Y-113123790D02*
X148246638Y-113028552D01*
X148246638Y-113028552D02*
X148294257Y-112980933D01*
X148294257Y-112980933D02*
X148389495Y-112933314D01*
X148389495Y-112933314D02*
X148484733Y-112933314D01*
X148484733Y-112933314D02*
X148627590Y-112980933D01*
X148627590Y-112980933D02*
X149199019Y-113552361D01*
X149199019Y-113552361D02*
X149199019Y-112933314D01*
X148294257Y-112552361D02*
X148246638Y-112504742D01*
X148246638Y-112504742D02*
X148199019Y-112409504D01*
X148199019Y-112409504D02*
X148199019Y-112171409D01*
X148199019Y-112171409D02*
X148246638Y-112076171D01*
X148246638Y-112076171D02*
X148294257Y-112028552D01*
X148294257Y-112028552D02*
X148389495Y-111980933D01*
X148389495Y-111980933D02*
X148484733Y-111980933D01*
X148484733Y-111980933D02*
X148627590Y-112028552D01*
X148627590Y-112028552D02*
X149199019Y-112599980D01*
X149199019Y-112599980D02*
X149199019Y-111980933D01*
X151510419Y-113793352D02*
X151510419Y-114364780D01*
X151510419Y-114079066D02*
X150510419Y-114079066D01*
X150510419Y-114079066D02*
X150653276Y-114174304D01*
X150653276Y-114174304D02*
X150748514Y-114269542D01*
X150748514Y-114269542D02*
X150796133Y-114364780D01*
X151129466Y-113364780D02*
X151129466Y-112602876D01*
X150510419Y-112221923D02*
X151510419Y-111983828D01*
X151510419Y-111983828D02*
X150796133Y-111793352D01*
X150796133Y-111793352D02*
X151510419Y-111602876D01*
X151510419Y-111602876D02*
X150510419Y-111364781D01*
X151510419Y-110983828D02*
X150843752Y-110983828D01*
X150510419Y-110983828D02*
X150558038Y-111031447D01*
X150558038Y-111031447D02*
X150605657Y-110983828D01*
X150605657Y-110983828D02*
X150558038Y-110936209D01*
X150558038Y-110936209D02*
X150510419Y-110983828D01*
X150510419Y-110983828D02*
X150605657Y-110983828D01*
X151510419Y-110507638D02*
X150843752Y-110507638D01*
X151034228Y-110507638D02*
X150938990Y-110460019D01*
X150938990Y-110460019D02*
X150891371Y-110412400D01*
X150891371Y-110412400D02*
X150843752Y-110317162D01*
X150843752Y-110317162D02*
X150843752Y-110221924D01*
X151462800Y-109507638D02*
X151510419Y-109602876D01*
X151510419Y-109602876D02*
X151510419Y-109793352D01*
X151510419Y-109793352D02*
X151462800Y-109888590D01*
X151462800Y-109888590D02*
X151367561Y-109936209D01*
X151367561Y-109936209D02*
X150986609Y-109936209D01*
X150986609Y-109936209D02*
X150891371Y-109888590D01*
X150891371Y-109888590D02*
X150843752Y-109793352D01*
X150843752Y-109793352D02*
X150843752Y-109602876D01*
X150843752Y-109602876D02*
X150891371Y-109507638D01*
X150891371Y-109507638D02*
X150986609Y-109460019D01*
X150986609Y-109460019D02*
X151081847Y-109460019D01*
X151081847Y-109460019D02*
X151177085Y-109936209D01*
X193706952Y-127380419D02*
X193135524Y-127380419D01*
X193421238Y-127380419D02*
X193421238Y-126380419D01*
X193421238Y-126380419D02*
X193326000Y-126523276D01*
X193326000Y-126523276D02*
X193230762Y-126618514D01*
X193230762Y-126618514D02*
X193135524Y-126666133D01*
X194087905Y-126475657D02*
X194135524Y-126428038D01*
X194135524Y-126428038D02*
X194230762Y-126380419D01*
X194230762Y-126380419D02*
X194468857Y-126380419D01*
X194468857Y-126380419D02*
X194564095Y-126428038D01*
X194564095Y-126428038D02*
X194611714Y-126475657D01*
X194611714Y-126475657D02*
X194659333Y-126570895D01*
X194659333Y-126570895D02*
X194659333Y-126666133D01*
X194659333Y-126666133D02*
X194611714Y-126808990D01*
X194611714Y-126808990D02*
X194040286Y-127380419D01*
X194040286Y-127380419D02*
X194659333Y-127380419D01*
X194945048Y-126380419D02*
X195278381Y-127380419D01*
X195278381Y-127380419D02*
X195611714Y-126380419D01*
X195945048Y-127380419D02*
X195945048Y-126380419D01*
X195945048Y-126380419D02*
X196183143Y-126380419D01*
X196183143Y-126380419D02*
X196326000Y-126428038D01*
X196326000Y-126428038D02*
X196421238Y-126523276D01*
X196421238Y-126523276D02*
X196468857Y-126618514D01*
X196468857Y-126618514D02*
X196516476Y-126808990D01*
X196516476Y-126808990D02*
X196516476Y-126951847D01*
X196516476Y-126951847D02*
X196468857Y-127142323D01*
X196468857Y-127142323D02*
X196421238Y-127237561D01*
X196421238Y-127237561D02*
X196326000Y-127332800D01*
X196326000Y-127332800D02*
X196183143Y-127380419D01*
X196183143Y-127380419D02*
X195945048Y-127380419D01*
X197516476Y-127285180D02*
X197468857Y-127332800D01*
X197468857Y-127332800D02*
X197326000Y-127380419D01*
X197326000Y-127380419D02*
X197230762Y-127380419D01*
X197230762Y-127380419D02*
X197087905Y-127332800D01*
X197087905Y-127332800D02*
X196992667Y-127237561D01*
X196992667Y-127237561D02*
X196945048Y-127142323D01*
X196945048Y-127142323D02*
X196897429Y-126951847D01*
X196897429Y-126951847D02*
X196897429Y-126808990D01*
X196897429Y-126808990D02*
X196945048Y-126618514D01*
X196945048Y-126618514D02*
X196992667Y-126523276D01*
X196992667Y-126523276D02*
X197087905Y-126428038D01*
X197087905Y-126428038D02*
X197230762Y-126380419D01*
X197230762Y-126380419D02*
X197326000Y-126380419D01*
X197326000Y-126380419D02*
X197468857Y-126428038D01*
X197468857Y-126428038D02*
X197516476Y-126475657D01*
X143788819Y-117719123D02*
X142788819Y-117719123D01*
X143788819Y-116671505D02*
X143312628Y-117004838D01*
X143788819Y-117242933D02*
X142788819Y-117242933D01*
X142788819Y-117242933D02*
X142788819Y-116861981D01*
X142788819Y-116861981D02*
X142836438Y-116766743D01*
X142836438Y-116766743D02*
X142884057Y-116719124D01*
X142884057Y-116719124D02*
X142979295Y-116671505D01*
X142979295Y-116671505D02*
X143122152Y-116671505D01*
X143122152Y-116671505D02*
X143217390Y-116719124D01*
X143217390Y-116719124D02*
X143265009Y-116766743D01*
X143265009Y-116766743D02*
X143312628Y-116861981D01*
X143312628Y-116861981D02*
X143312628Y-117242933D01*
X142788819Y-115623885D02*
X142788819Y-115052457D01*
X143788819Y-115338171D02*
X142788819Y-115338171D01*
X143741200Y-114338171D02*
X143788819Y-114433409D01*
X143788819Y-114433409D02*
X143788819Y-114623885D01*
X143788819Y-114623885D02*
X143741200Y-114719123D01*
X143741200Y-114719123D02*
X143645961Y-114766742D01*
X143645961Y-114766742D02*
X143265009Y-114766742D01*
X143265009Y-114766742D02*
X143169771Y-114719123D01*
X143169771Y-114719123D02*
X143122152Y-114623885D01*
X143122152Y-114623885D02*
X143122152Y-114433409D01*
X143122152Y-114433409D02*
X143169771Y-114338171D01*
X143169771Y-114338171D02*
X143265009Y-114290552D01*
X143265009Y-114290552D02*
X143360247Y-114290552D01*
X143360247Y-114290552D02*
X143455485Y-114766742D01*
X143788819Y-113861980D02*
X143122152Y-113861980D01*
X143217390Y-113861980D02*
X143169771Y-113814361D01*
X143169771Y-113814361D02*
X143122152Y-113719123D01*
X143122152Y-113719123D02*
X143122152Y-113576266D01*
X143122152Y-113576266D02*
X143169771Y-113481028D01*
X143169771Y-113481028D02*
X143265009Y-113433409D01*
X143265009Y-113433409D02*
X143788819Y-113433409D01*
X143265009Y-113433409D02*
X143169771Y-113385790D01*
X143169771Y-113385790D02*
X143122152Y-113290552D01*
X143122152Y-113290552D02*
X143122152Y-113147695D01*
X143122152Y-113147695D02*
X143169771Y-113052456D01*
X143169771Y-113052456D02*
X143265009Y-113004837D01*
X143265009Y-113004837D02*
X143788819Y-113004837D01*
X143122152Y-112528647D02*
X144122152Y-112528647D01*
X143169771Y-112528647D02*
X143122152Y-112433409D01*
X143122152Y-112433409D02*
X143122152Y-112242933D01*
X143122152Y-112242933D02*
X143169771Y-112147695D01*
X143169771Y-112147695D02*
X143217390Y-112100076D01*
X143217390Y-112100076D02*
X143312628Y-112052457D01*
X143312628Y-112052457D02*
X143598342Y-112052457D01*
X143598342Y-112052457D02*
X143693580Y-112100076D01*
X143693580Y-112100076D02*
X143741200Y-112147695D01*
X143741200Y-112147695D02*
X143788819Y-112242933D01*
X143788819Y-112242933D02*
X143788819Y-112433409D01*
X143788819Y-112433409D02*
X143741200Y-112528647D01*
D11*
X178338095Y-110868419D02*
X178338095Y-111677942D01*
X178338095Y-111677942D02*
X178385714Y-111773180D01*
X178385714Y-111773180D02*
X178433333Y-111820800D01*
X178433333Y-111820800D02*
X178528571Y-111868419D01*
X178528571Y-111868419D02*
X178719047Y-111868419D01*
X178719047Y-111868419D02*
X178814285Y-111820800D01*
X178814285Y-111820800D02*
X178861904Y-111773180D01*
X178861904Y-111773180D02*
X178909523Y-111677942D01*
X178909523Y-111677942D02*
X178909523Y-110868419D01*
X179338095Y-110963657D02*
X179385714Y-110916038D01*
X179385714Y-110916038D02*
X179480952Y-110868419D01*
X179480952Y-110868419D02*
X179719047Y-110868419D01*
X179719047Y-110868419D02*
X179814285Y-110916038D01*
X179814285Y-110916038D02*
X179861904Y-110963657D01*
X179861904Y-110963657D02*
X179909523Y-111058895D01*
X179909523Y-111058895D02*
X179909523Y-111154133D01*
X179909523Y-111154133D02*
X179861904Y-111296990D01*
X179861904Y-111296990D02*
X179290476Y-111868419D01*
X179290476Y-111868419D02*
X179909523Y-111868419D01*
X178338095Y-116668419D02*
X178338095Y-117477942D01*
X178338095Y-117477942D02*
X178385714Y-117573180D01*
X178385714Y-117573180D02*
X178433333Y-117620800D01*
X178433333Y-117620800D02*
X178528571Y-117668419D01*
X178528571Y-117668419D02*
X178719047Y-117668419D01*
X178719047Y-117668419D02*
X178814285Y-117620800D01*
X178814285Y-117620800D02*
X178861904Y-117573180D01*
X178861904Y-117573180D02*
X178909523Y-117477942D01*
X178909523Y-117477942D02*
X178909523Y-116668419D01*
X179290476Y-116668419D02*
X179909523Y-116668419D01*
X179909523Y-116668419D02*
X179576190Y-117049371D01*
X179576190Y-117049371D02*
X179719047Y-117049371D01*
X179719047Y-117049371D02*
X179814285Y-117096990D01*
X179814285Y-117096990D02*
X179861904Y-117144609D01*
X179861904Y-117144609D02*
X179909523Y-117239847D01*
X179909523Y-117239847D02*
X179909523Y-117477942D01*
X179909523Y-117477942D02*
X179861904Y-117573180D01*
X179861904Y-117573180D02*
X179814285Y-117620800D01*
X179814285Y-117620800D02*
X179719047Y-117668419D01*
X179719047Y-117668419D02*
X179433333Y-117668419D01*
X179433333Y-117668419D02*
X179338095Y-117620800D01*
X179338095Y-117620800D02*
X179290476Y-117573180D01*
X178338095Y-128268419D02*
X178338095Y-129077942D01*
X178338095Y-129077942D02*
X178385714Y-129173180D01*
X178385714Y-129173180D02*
X178433333Y-129220800D01*
X178433333Y-129220800D02*
X178528571Y-129268419D01*
X178528571Y-129268419D02*
X178719047Y-129268419D01*
X178719047Y-129268419D02*
X178814285Y-129220800D01*
X178814285Y-129220800D02*
X178861904Y-129173180D01*
X178861904Y-129173180D02*
X178909523Y-129077942D01*
X178909523Y-129077942D02*
X178909523Y-128268419D01*
X179861904Y-128268419D02*
X179385714Y-128268419D01*
X179385714Y-128268419D02*
X179338095Y-128744609D01*
X179338095Y-128744609D02*
X179385714Y-128696990D01*
X179385714Y-128696990D02*
X179480952Y-128649371D01*
X179480952Y-128649371D02*
X179719047Y-128649371D01*
X179719047Y-128649371D02*
X179814285Y-128696990D01*
X179814285Y-128696990D02*
X179861904Y-128744609D01*
X179861904Y-128744609D02*
X179909523Y-128839847D01*
X179909523Y-128839847D02*
X179909523Y-129077942D01*
X179909523Y-129077942D02*
X179861904Y-129173180D01*
X179861904Y-129173180D02*
X179814285Y-129220800D01*
X179814285Y-129220800D02*
X179719047Y-129268419D01*
X179719047Y-129268419D02*
X179480952Y-129268419D01*
X179480952Y-129268419D02*
X179385714Y-129220800D01*
X179385714Y-129220800D02*
X179338095Y-129173180D01*
X178338095Y-99268419D02*
X178338095Y-100077942D01*
X178338095Y-100077942D02*
X178385714Y-100173180D01*
X178385714Y-100173180D02*
X178433333Y-100220800D01*
X178433333Y-100220800D02*
X178528571Y-100268419D01*
X178528571Y-100268419D02*
X178719047Y-100268419D01*
X178719047Y-100268419D02*
X178814285Y-100220800D01*
X178814285Y-100220800D02*
X178861904Y-100173180D01*
X178861904Y-100173180D02*
X178909523Y-100077942D01*
X178909523Y-100077942D02*
X178909523Y-99268419D01*
X179814285Y-99268419D02*
X179623809Y-99268419D01*
X179623809Y-99268419D02*
X179528571Y-99316038D01*
X179528571Y-99316038D02*
X179480952Y-99363657D01*
X179480952Y-99363657D02*
X179385714Y-99506514D01*
X179385714Y-99506514D02*
X179338095Y-99696990D01*
X179338095Y-99696990D02*
X179338095Y-100077942D01*
X179338095Y-100077942D02*
X179385714Y-100173180D01*
X179385714Y-100173180D02*
X179433333Y-100220800D01*
X179433333Y-100220800D02*
X179528571Y-100268419D01*
X179528571Y-100268419D02*
X179719047Y-100268419D01*
X179719047Y-100268419D02*
X179814285Y-100220800D01*
X179814285Y-100220800D02*
X179861904Y-100173180D01*
X179861904Y-100173180D02*
X179909523Y-100077942D01*
X179909523Y-100077942D02*
X179909523Y-99839847D01*
X179909523Y-99839847D02*
X179861904Y-99744609D01*
X179861904Y-99744609D02*
X179814285Y-99696990D01*
X179814285Y-99696990D02*
X179719047Y-99649371D01*
X179719047Y-99649371D02*
X179528571Y-99649371D01*
X179528571Y-99649371D02*
X179433333Y-99696990D01*
X179433333Y-99696990D02*
X179385714Y-99744609D01*
X179385714Y-99744609D02*
X179338095Y-99839847D01*
X164185333Y-94845580D02*
X164137714Y-94893200D01*
X164137714Y-94893200D02*
X163994857Y-94940819D01*
X163994857Y-94940819D02*
X163899619Y-94940819D01*
X163899619Y-94940819D02*
X163756762Y-94893200D01*
X163756762Y-94893200D02*
X163661524Y-94797961D01*
X163661524Y-94797961D02*
X163613905Y-94702723D01*
X163613905Y-94702723D02*
X163566286Y-94512247D01*
X163566286Y-94512247D02*
X163566286Y-94369390D01*
X163566286Y-94369390D02*
X163613905Y-94178914D01*
X163613905Y-94178914D02*
X163661524Y-94083676D01*
X163661524Y-94083676D02*
X163756762Y-93988438D01*
X163756762Y-93988438D02*
X163899619Y-93940819D01*
X163899619Y-93940819D02*
X163994857Y-93940819D01*
X163994857Y-93940819D02*
X164137714Y-93988438D01*
X164137714Y-93988438D02*
X164185333Y-94036057D01*
X165042476Y-94274152D02*
X165042476Y-94940819D01*
X164804381Y-93893200D02*
X164566286Y-94607485D01*
X164566286Y-94607485D02*
X165185333Y-94607485D01*
X146452813Y-98001819D02*
X146119480Y-97525628D01*
X145881385Y-98001819D02*
X145881385Y-97001819D01*
X145881385Y-97001819D02*
X146262337Y-97001819D01*
X146262337Y-97001819D02*
X146357575Y-97049438D01*
X146357575Y-97049438D02*
X146405194Y-97097057D01*
X146405194Y-97097057D02*
X146452813Y-97192295D01*
X146452813Y-97192295D02*
X146452813Y-97335152D01*
X146452813Y-97335152D02*
X146405194Y-97430390D01*
X146405194Y-97430390D02*
X146357575Y-97478009D01*
X146357575Y-97478009D02*
X146262337Y-97525628D01*
X146262337Y-97525628D02*
X145881385Y-97525628D01*
X147405194Y-98001819D02*
X146833766Y-98001819D01*
X147119480Y-98001819D02*
X147119480Y-97001819D01*
X147119480Y-97001819D02*
X147024242Y-97144676D01*
X147024242Y-97144676D02*
X146929004Y-97239914D01*
X146929004Y-97239914D02*
X146833766Y-97287533D01*
X165743580Y-119566666D02*
X165791200Y-119614285D01*
X165791200Y-119614285D02*
X165838819Y-119757142D01*
X165838819Y-119757142D02*
X165838819Y-119852380D01*
X165838819Y-119852380D02*
X165791200Y-119995237D01*
X165791200Y-119995237D02*
X165695961Y-120090475D01*
X165695961Y-120090475D02*
X165600723Y-120138094D01*
X165600723Y-120138094D02*
X165410247Y-120185713D01*
X165410247Y-120185713D02*
X165267390Y-120185713D01*
X165267390Y-120185713D02*
X165076914Y-120138094D01*
X165076914Y-120138094D02*
X164981676Y-120090475D01*
X164981676Y-120090475D02*
X164886438Y-119995237D01*
X164886438Y-119995237D02*
X164838819Y-119852380D01*
X164838819Y-119852380D02*
X164838819Y-119757142D01*
X164838819Y-119757142D02*
X164886438Y-119614285D01*
X164886438Y-119614285D02*
X164934057Y-119566666D01*
X165838819Y-119090475D02*
X165838819Y-118899999D01*
X165838819Y-118899999D02*
X165791200Y-118804761D01*
X165791200Y-118804761D02*
X165743580Y-118757142D01*
X165743580Y-118757142D02*
X165600723Y-118661904D01*
X165600723Y-118661904D02*
X165410247Y-118614285D01*
X165410247Y-118614285D02*
X165029295Y-118614285D01*
X165029295Y-118614285D02*
X164934057Y-118661904D01*
X164934057Y-118661904D02*
X164886438Y-118709523D01*
X164886438Y-118709523D02*
X164838819Y-118804761D01*
X164838819Y-118804761D02*
X164838819Y-118995237D01*
X164838819Y-118995237D02*
X164886438Y-119090475D01*
X164886438Y-119090475D02*
X164934057Y-119138094D01*
X164934057Y-119138094D02*
X165029295Y-119185713D01*
X165029295Y-119185713D02*
X165267390Y-119185713D01*
X165267390Y-119185713D02*
X165362628Y-119138094D01*
X165362628Y-119138094D02*
X165410247Y-119090475D01*
X165410247Y-119090475D02*
X165457866Y-118995237D01*
X165457866Y-118995237D02*
X165457866Y-118804761D01*
X165457866Y-118804761D02*
X165410247Y-118709523D01*
X165410247Y-118709523D02*
X165362628Y-118661904D01*
X165362628Y-118661904D02*
X165267390Y-118614285D01*
X199163580Y-104020857D02*
X199211200Y-104068476D01*
X199211200Y-104068476D02*
X199258819Y-104211333D01*
X199258819Y-104211333D02*
X199258819Y-104306571D01*
X199258819Y-104306571D02*
X199211200Y-104449428D01*
X199211200Y-104449428D02*
X199115961Y-104544666D01*
X199115961Y-104544666D02*
X199020723Y-104592285D01*
X199020723Y-104592285D02*
X198830247Y-104639904D01*
X198830247Y-104639904D02*
X198687390Y-104639904D01*
X198687390Y-104639904D02*
X198496914Y-104592285D01*
X198496914Y-104592285D02*
X198401676Y-104544666D01*
X198401676Y-104544666D02*
X198306438Y-104449428D01*
X198306438Y-104449428D02*
X198258819Y-104306571D01*
X198258819Y-104306571D02*
X198258819Y-104211333D01*
X198258819Y-104211333D02*
X198306438Y-104068476D01*
X198306438Y-104068476D02*
X198354057Y-104020857D01*
X199258819Y-103068476D02*
X199258819Y-103639904D01*
X199258819Y-103354190D02*
X198258819Y-103354190D01*
X198258819Y-103354190D02*
X198401676Y-103449428D01*
X198401676Y-103449428D02*
X198496914Y-103544666D01*
X198496914Y-103544666D02*
X198544533Y-103639904D01*
X199258819Y-102116095D02*
X199258819Y-102687523D01*
X199258819Y-102401809D02*
X198258819Y-102401809D01*
X198258819Y-102401809D02*
X198401676Y-102497047D01*
X198401676Y-102497047D02*
X198496914Y-102592285D01*
X198496914Y-102592285D02*
X198544533Y-102687523D01*
X158185333Y-86560819D02*
X157709143Y-86560819D01*
X157709143Y-86560819D02*
X157709143Y-85560819D01*
X159042476Y-86560819D02*
X158471048Y-86560819D01*
X158756762Y-86560819D02*
X158756762Y-85560819D01*
X158756762Y-85560819D02*
X158661524Y-85703676D01*
X158661524Y-85703676D02*
X158566286Y-85798914D01*
X158566286Y-85798914D02*
X158471048Y-85846533D01*
X199163580Y-119442857D02*
X199211200Y-119490476D01*
X199211200Y-119490476D02*
X199258819Y-119633333D01*
X199258819Y-119633333D02*
X199258819Y-119728571D01*
X199258819Y-119728571D02*
X199211200Y-119871428D01*
X199211200Y-119871428D02*
X199115961Y-119966666D01*
X199115961Y-119966666D02*
X199020723Y-120014285D01*
X199020723Y-120014285D02*
X198830247Y-120061904D01*
X198830247Y-120061904D02*
X198687390Y-120061904D01*
X198687390Y-120061904D02*
X198496914Y-120014285D01*
X198496914Y-120014285D02*
X198401676Y-119966666D01*
X198401676Y-119966666D02*
X198306438Y-119871428D01*
X198306438Y-119871428D02*
X198258819Y-119728571D01*
X198258819Y-119728571D02*
X198258819Y-119633333D01*
X198258819Y-119633333D02*
X198306438Y-119490476D01*
X198306438Y-119490476D02*
X198354057Y-119442857D01*
X199258819Y-118490476D02*
X199258819Y-119061904D01*
X199258819Y-118776190D02*
X198258819Y-118776190D01*
X198258819Y-118776190D02*
X198401676Y-118871428D01*
X198401676Y-118871428D02*
X198496914Y-118966666D01*
X198496914Y-118966666D02*
X198544533Y-119061904D01*
X198258819Y-117871428D02*
X198258819Y-117776190D01*
X198258819Y-117776190D02*
X198306438Y-117680952D01*
X198306438Y-117680952D02*
X198354057Y-117633333D01*
X198354057Y-117633333D02*
X198449295Y-117585714D01*
X198449295Y-117585714D02*
X198639771Y-117538095D01*
X198639771Y-117538095D02*
X198877866Y-117538095D01*
X198877866Y-117538095D02*
X199068342Y-117585714D01*
X199068342Y-117585714D02*
X199163580Y-117633333D01*
X199163580Y-117633333D02*
X199211200Y-117680952D01*
X199211200Y-117680952D02*
X199258819Y-117776190D01*
X199258819Y-117776190D02*
X199258819Y-117871428D01*
X199258819Y-117871428D02*
X199211200Y-117966666D01*
X199211200Y-117966666D02*
X199163580Y-118014285D01*
X199163580Y-118014285D02*
X199068342Y-118061904D01*
X199068342Y-118061904D02*
X198877866Y-118109523D01*
X198877866Y-118109523D02*
X198639771Y-118109523D01*
X198639771Y-118109523D02*
X198449295Y-118061904D01*
X198449295Y-118061904D02*
X198354057Y-118014285D01*
X198354057Y-118014285D02*
X198306438Y-117966666D01*
X198306438Y-117966666D02*
X198258819Y-117871428D01*
X164185333Y-91545580D02*
X164137714Y-91593200D01*
X164137714Y-91593200D02*
X163994857Y-91640819D01*
X163994857Y-91640819D02*
X163899619Y-91640819D01*
X163899619Y-91640819D02*
X163756762Y-91593200D01*
X163756762Y-91593200D02*
X163661524Y-91497961D01*
X163661524Y-91497961D02*
X163613905Y-91402723D01*
X163613905Y-91402723D02*
X163566286Y-91212247D01*
X163566286Y-91212247D02*
X163566286Y-91069390D01*
X163566286Y-91069390D02*
X163613905Y-90878914D01*
X163613905Y-90878914D02*
X163661524Y-90783676D01*
X163661524Y-90783676D02*
X163756762Y-90688438D01*
X163756762Y-90688438D02*
X163899619Y-90640819D01*
X163899619Y-90640819D02*
X163994857Y-90640819D01*
X163994857Y-90640819D02*
X164137714Y-90688438D01*
X164137714Y-90688438D02*
X164185333Y-90736057D01*
X165042476Y-90640819D02*
X164852000Y-90640819D01*
X164852000Y-90640819D02*
X164756762Y-90688438D01*
X164756762Y-90688438D02*
X164709143Y-90736057D01*
X164709143Y-90736057D02*
X164613905Y-90878914D01*
X164613905Y-90878914D02*
X164566286Y-91069390D01*
X164566286Y-91069390D02*
X164566286Y-91450342D01*
X164566286Y-91450342D02*
X164613905Y-91545580D01*
X164613905Y-91545580D02*
X164661524Y-91593200D01*
X164661524Y-91593200D02*
X164756762Y-91640819D01*
X164756762Y-91640819D02*
X164947238Y-91640819D01*
X164947238Y-91640819D02*
X165042476Y-91593200D01*
X165042476Y-91593200D02*
X165090095Y-91545580D01*
X165090095Y-91545580D02*
X165137714Y-91450342D01*
X165137714Y-91450342D02*
X165137714Y-91212247D01*
X165137714Y-91212247D02*
X165090095Y-91117009D01*
X165090095Y-91117009D02*
X165042476Y-91069390D01*
X165042476Y-91069390D02*
X164947238Y-91021771D01*
X164947238Y-91021771D02*
X164756762Y-91021771D01*
X164756762Y-91021771D02*
X164661524Y-91069390D01*
X164661524Y-91069390D02*
X164613905Y-91117009D01*
X164613905Y-91117009D02*
X164566286Y-91212247D01*
X153085580Y-88178466D02*
X153133200Y-88226085D01*
X153133200Y-88226085D02*
X153180819Y-88368942D01*
X153180819Y-88368942D02*
X153180819Y-88464180D01*
X153180819Y-88464180D02*
X153133200Y-88607037D01*
X153133200Y-88607037D02*
X153037961Y-88702275D01*
X153037961Y-88702275D02*
X152942723Y-88749894D01*
X152942723Y-88749894D02*
X152752247Y-88797513D01*
X152752247Y-88797513D02*
X152609390Y-88797513D01*
X152609390Y-88797513D02*
X152418914Y-88749894D01*
X152418914Y-88749894D02*
X152323676Y-88702275D01*
X152323676Y-88702275D02*
X152228438Y-88607037D01*
X152228438Y-88607037D02*
X152180819Y-88464180D01*
X152180819Y-88464180D02*
X152180819Y-88368942D01*
X152180819Y-88368942D02*
X152228438Y-88226085D01*
X152228438Y-88226085D02*
X152276057Y-88178466D01*
X152276057Y-87797513D02*
X152228438Y-87749894D01*
X152228438Y-87749894D02*
X152180819Y-87654656D01*
X152180819Y-87654656D02*
X152180819Y-87416561D01*
X152180819Y-87416561D02*
X152228438Y-87321323D01*
X152228438Y-87321323D02*
X152276057Y-87273704D01*
X152276057Y-87273704D02*
X152371295Y-87226085D01*
X152371295Y-87226085D02*
X152466533Y-87226085D01*
X152466533Y-87226085D02*
X152609390Y-87273704D01*
X152609390Y-87273704D02*
X153180819Y-87845132D01*
X153180819Y-87845132D02*
X153180819Y-87226085D01*
D10*
X192397142Y-112325380D02*
X192349523Y-112373000D01*
X192349523Y-112373000D02*
X192206666Y-112420619D01*
X192206666Y-112420619D02*
X192111428Y-112420619D01*
X192111428Y-112420619D02*
X191968571Y-112373000D01*
X191968571Y-112373000D02*
X191873333Y-112277761D01*
X191873333Y-112277761D02*
X191825714Y-112182523D01*
X191825714Y-112182523D02*
X191778095Y-111992047D01*
X191778095Y-111992047D02*
X191778095Y-111849190D01*
X191778095Y-111849190D02*
X191825714Y-111658714D01*
X191825714Y-111658714D02*
X191873333Y-111563476D01*
X191873333Y-111563476D02*
X191968571Y-111468238D01*
X191968571Y-111468238D02*
X192111428Y-111420619D01*
X192111428Y-111420619D02*
X192206666Y-111420619D01*
X192206666Y-111420619D02*
X192349523Y-111468238D01*
X192349523Y-111468238D02*
X192397142Y-111515857D01*
X193349523Y-112420619D02*
X192778095Y-112420619D01*
X193063809Y-112420619D02*
X193063809Y-111420619D01*
X193063809Y-111420619D02*
X192968571Y-111563476D01*
X192968571Y-111563476D02*
X192873333Y-111658714D01*
X192873333Y-111658714D02*
X192778095Y-111706333D01*
X193730476Y-111515857D02*
X193778095Y-111468238D01*
X193778095Y-111468238D02*
X193873333Y-111420619D01*
X193873333Y-111420619D02*
X194111428Y-111420619D01*
X194111428Y-111420619D02*
X194206666Y-111468238D01*
X194206666Y-111468238D02*
X194254285Y-111515857D01*
X194254285Y-111515857D02*
X194301904Y-111611095D01*
X194301904Y-111611095D02*
X194301904Y-111706333D01*
X194301904Y-111706333D02*
X194254285Y-111849190D01*
X194254285Y-111849190D02*
X193682857Y-112420619D01*
X193682857Y-112420619D02*
X194301904Y-112420619D01*
D11*
X172166666Y-78954819D02*
X172166666Y-79669104D01*
X172166666Y-79669104D02*
X172119047Y-79811961D01*
X172119047Y-79811961D02*
X172023809Y-79907200D01*
X172023809Y-79907200D02*
X171880952Y-79954819D01*
X171880952Y-79954819D02*
X171785714Y-79954819D01*
X173166666Y-79954819D02*
X172595238Y-79954819D01*
X172880952Y-79954819D02*
X172880952Y-78954819D01*
X172880952Y-78954819D02*
X172785714Y-79097676D01*
X172785714Y-79097676D02*
X172690476Y-79192914D01*
X172690476Y-79192914D02*
X172595238Y-79240533D01*
X177150733Y-92199619D02*
X176817400Y-91723428D01*
X176579305Y-92199619D02*
X176579305Y-91199619D01*
X176579305Y-91199619D02*
X176960257Y-91199619D01*
X176960257Y-91199619D02*
X177055495Y-91247238D01*
X177055495Y-91247238D02*
X177103114Y-91294857D01*
X177103114Y-91294857D02*
X177150733Y-91390095D01*
X177150733Y-91390095D02*
X177150733Y-91532952D01*
X177150733Y-91532952D02*
X177103114Y-91628190D01*
X177103114Y-91628190D02*
X177055495Y-91675809D01*
X177055495Y-91675809D02*
X176960257Y-91723428D01*
X176960257Y-91723428D02*
X176579305Y-91723428D01*
X178007876Y-91199619D02*
X177817400Y-91199619D01*
X177817400Y-91199619D02*
X177722162Y-91247238D01*
X177722162Y-91247238D02*
X177674543Y-91294857D01*
X177674543Y-91294857D02*
X177579305Y-91437714D01*
X177579305Y-91437714D02*
X177531686Y-91628190D01*
X177531686Y-91628190D02*
X177531686Y-92009142D01*
X177531686Y-92009142D02*
X177579305Y-92104380D01*
X177579305Y-92104380D02*
X177626924Y-92152000D01*
X177626924Y-92152000D02*
X177722162Y-92199619D01*
X177722162Y-92199619D02*
X177912638Y-92199619D01*
X177912638Y-92199619D02*
X178007876Y-92152000D01*
X178007876Y-92152000D02*
X178055495Y-92104380D01*
X178055495Y-92104380D02*
X178103114Y-92009142D01*
X178103114Y-92009142D02*
X178103114Y-91771047D01*
X178103114Y-91771047D02*
X178055495Y-91675809D01*
X178055495Y-91675809D02*
X178007876Y-91628190D01*
X178007876Y-91628190D02*
X177912638Y-91580571D01*
X177912638Y-91580571D02*
X177722162Y-91580571D01*
X177722162Y-91580571D02*
X177626924Y-91628190D01*
X177626924Y-91628190D02*
X177579305Y-91675809D01*
X177579305Y-91675809D02*
X177531686Y-91771047D01*
D10*
X190862180Y-100342857D02*
X190909800Y-100390476D01*
X190909800Y-100390476D02*
X190957419Y-100533333D01*
X190957419Y-100533333D02*
X190957419Y-100628571D01*
X190957419Y-100628571D02*
X190909800Y-100771428D01*
X190909800Y-100771428D02*
X190814561Y-100866666D01*
X190814561Y-100866666D02*
X190719323Y-100914285D01*
X190719323Y-100914285D02*
X190528847Y-100961904D01*
X190528847Y-100961904D02*
X190385990Y-100961904D01*
X190385990Y-100961904D02*
X190195514Y-100914285D01*
X190195514Y-100914285D02*
X190100276Y-100866666D01*
X190100276Y-100866666D02*
X190005038Y-100771428D01*
X190005038Y-100771428D02*
X189957419Y-100628571D01*
X189957419Y-100628571D02*
X189957419Y-100533333D01*
X189957419Y-100533333D02*
X190005038Y-100390476D01*
X190005038Y-100390476D02*
X190052657Y-100342857D01*
X190957419Y-99390476D02*
X190957419Y-99961904D01*
X190957419Y-99676190D02*
X189957419Y-99676190D01*
X189957419Y-99676190D02*
X190100276Y-99771428D01*
X190100276Y-99771428D02*
X190195514Y-99866666D01*
X190195514Y-99866666D02*
X190243133Y-99961904D01*
X189957419Y-99057142D02*
X189957419Y-98438095D01*
X189957419Y-98438095D02*
X190338371Y-98771428D01*
X190338371Y-98771428D02*
X190338371Y-98628571D01*
X190338371Y-98628571D02*
X190385990Y-98533333D01*
X190385990Y-98533333D02*
X190433609Y-98485714D01*
X190433609Y-98485714D02*
X190528847Y-98438095D01*
X190528847Y-98438095D02*
X190766942Y-98438095D01*
X190766942Y-98438095D02*
X190862180Y-98485714D01*
X190862180Y-98485714D02*
X190909800Y-98533333D01*
X190909800Y-98533333D02*
X190957419Y-98628571D01*
X190957419Y-98628571D02*
X190957419Y-98914285D01*
X190957419Y-98914285D02*
X190909800Y-99009523D01*
X190909800Y-99009523D02*
X190862180Y-99057142D01*
D11*
X157419580Y-103140666D02*
X157467200Y-103188285D01*
X157467200Y-103188285D02*
X157514819Y-103331142D01*
X157514819Y-103331142D02*
X157514819Y-103426380D01*
X157514819Y-103426380D02*
X157467200Y-103569237D01*
X157467200Y-103569237D02*
X157371961Y-103664475D01*
X157371961Y-103664475D02*
X157276723Y-103712094D01*
X157276723Y-103712094D02*
X157086247Y-103759713D01*
X157086247Y-103759713D02*
X156943390Y-103759713D01*
X156943390Y-103759713D02*
X156752914Y-103712094D01*
X156752914Y-103712094D02*
X156657676Y-103664475D01*
X156657676Y-103664475D02*
X156562438Y-103569237D01*
X156562438Y-103569237D02*
X156514819Y-103426380D01*
X156514819Y-103426380D02*
X156514819Y-103331142D01*
X156514819Y-103331142D02*
X156562438Y-103188285D01*
X156562438Y-103188285D02*
X156610057Y-103140666D01*
X156514819Y-102235904D02*
X156514819Y-102712094D01*
X156514819Y-102712094D02*
X156991009Y-102759713D01*
X156991009Y-102759713D02*
X156943390Y-102712094D01*
X156943390Y-102712094D02*
X156895771Y-102616856D01*
X156895771Y-102616856D02*
X156895771Y-102378761D01*
X156895771Y-102378761D02*
X156943390Y-102283523D01*
X156943390Y-102283523D02*
X156991009Y-102235904D01*
X156991009Y-102235904D02*
X157086247Y-102188285D01*
X157086247Y-102188285D02*
X157324342Y-102188285D01*
X157324342Y-102188285D02*
X157419580Y-102235904D01*
X157419580Y-102235904D02*
X157467200Y-102283523D01*
X157467200Y-102283523D02*
X157514819Y-102378761D01*
X157514819Y-102378761D02*
X157514819Y-102616856D01*
X157514819Y-102616856D02*
X157467200Y-102712094D01*
X157467200Y-102712094D02*
X157419580Y-102759713D01*
X149680819Y-88178466D02*
X149204628Y-88511799D01*
X149680819Y-88749894D02*
X148680819Y-88749894D01*
X148680819Y-88749894D02*
X148680819Y-88368942D01*
X148680819Y-88368942D02*
X148728438Y-88273704D01*
X148728438Y-88273704D02*
X148776057Y-88226085D01*
X148776057Y-88226085D02*
X148871295Y-88178466D01*
X148871295Y-88178466D02*
X149014152Y-88178466D01*
X149014152Y-88178466D02*
X149109390Y-88226085D01*
X149109390Y-88226085D02*
X149157009Y-88273704D01*
X149157009Y-88273704D02*
X149204628Y-88368942D01*
X149204628Y-88368942D02*
X149204628Y-88749894D01*
X149014152Y-87321323D02*
X149680819Y-87321323D01*
X148633200Y-87559418D02*
X149347485Y-87797513D01*
X149347485Y-87797513D02*
X149347485Y-87178466D01*
X151452813Y-97906580D02*
X151405194Y-97954200D01*
X151405194Y-97954200D02*
X151262337Y-98001819D01*
X151262337Y-98001819D02*
X151167099Y-98001819D01*
X151167099Y-98001819D02*
X151024242Y-97954200D01*
X151024242Y-97954200D02*
X150929004Y-97858961D01*
X150929004Y-97858961D02*
X150881385Y-97763723D01*
X150881385Y-97763723D02*
X150833766Y-97573247D01*
X150833766Y-97573247D02*
X150833766Y-97430390D01*
X150833766Y-97430390D02*
X150881385Y-97239914D01*
X150881385Y-97239914D02*
X150929004Y-97144676D01*
X150929004Y-97144676D02*
X151024242Y-97049438D01*
X151024242Y-97049438D02*
X151167099Y-97001819D01*
X151167099Y-97001819D02*
X151262337Y-97001819D01*
X151262337Y-97001819D02*
X151405194Y-97049438D01*
X151405194Y-97049438D02*
X151452813Y-97097057D01*
X151786147Y-97001819D02*
X152405194Y-97001819D01*
X152405194Y-97001819D02*
X152071861Y-97382771D01*
X152071861Y-97382771D02*
X152214718Y-97382771D01*
X152214718Y-97382771D02*
X152309956Y-97430390D01*
X152309956Y-97430390D02*
X152357575Y-97478009D01*
X152357575Y-97478009D02*
X152405194Y-97573247D01*
X152405194Y-97573247D02*
X152405194Y-97811342D01*
X152405194Y-97811342D02*
X152357575Y-97906580D01*
X152357575Y-97906580D02*
X152309956Y-97954200D01*
X152309956Y-97954200D02*
X152214718Y-98001819D01*
X152214718Y-98001819D02*
X151929004Y-98001819D01*
X151929004Y-98001819D02*
X151833766Y-97954200D01*
X151833766Y-97954200D02*
X151786147Y-97906580D01*
X146840333Y-93406580D02*
X146792714Y-93454200D01*
X146792714Y-93454200D02*
X146649857Y-93501819D01*
X146649857Y-93501819D02*
X146554619Y-93501819D01*
X146554619Y-93501819D02*
X146411762Y-93454200D01*
X146411762Y-93454200D02*
X146316524Y-93358961D01*
X146316524Y-93358961D02*
X146268905Y-93263723D01*
X146268905Y-93263723D02*
X146221286Y-93073247D01*
X146221286Y-93073247D02*
X146221286Y-92930390D01*
X146221286Y-92930390D02*
X146268905Y-92739914D01*
X146268905Y-92739914D02*
X146316524Y-92644676D01*
X146316524Y-92644676D02*
X146411762Y-92549438D01*
X146411762Y-92549438D02*
X146554619Y-92501819D01*
X146554619Y-92501819D02*
X146649857Y-92501819D01*
X146649857Y-92501819D02*
X146792714Y-92549438D01*
X146792714Y-92549438D02*
X146840333Y-92597057D01*
X147792714Y-93501819D02*
X147221286Y-93501819D01*
X147507000Y-93501819D02*
X147507000Y-92501819D01*
X147507000Y-92501819D02*
X147411762Y-92644676D01*
X147411762Y-92644676D02*
X147316524Y-92739914D01*
X147316524Y-92739914D02*
X147221286Y-92787533D01*
X157514819Y-108140666D02*
X157038628Y-108473999D01*
X157514819Y-108712094D02*
X156514819Y-108712094D01*
X156514819Y-108712094D02*
X156514819Y-108331142D01*
X156514819Y-108331142D02*
X156562438Y-108235904D01*
X156562438Y-108235904D02*
X156610057Y-108188285D01*
X156610057Y-108188285D02*
X156705295Y-108140666D01*
X156705295Y-108140666D02*
X156848152Y-108140666D01*
X156848152Y-108140666D02*
X156943390Y-108188285D01*
X156943390Y-108188285D02*
X156991009Y-108235904D01*
X156991009Y-108235904D02*
X157038628Y-108331142D01*
X157038628Y-108331142D02*
X157038628Y-108712094D01*
X156514819Y-107807332D02*
X156514819Y-107188285D01*
X156514819Y-107188285D02*
X156895771Y-107521618D01*
X156895771Y-107521618D02*
X156895771Y-107378761D01*
X156895771Y-107378761D02*
X156943390Y-107283523D01*
X156943390Y-107283523D02*
X156991009Y-107235904D01*
X156991009Y-107235904D02*
X157086247Y-107188285D01*
X157086247Y-107188285D02*
X157324342Y-107188285D01*
X157324342Y-107188285D02*
X157419580Y-107235904D01*
X157419580Y-107235904D02*
X157467200Y-107283523D01*
X157467200Y-107283523D02*
X157514819Y-107378761D01*
X157514819Y-107378761D02*
X157514819Y-107664475D01*
X157514819Y-107664475D02*
X157467200Y-107759713D01*
X157467200Y-107759713D02*
X157419580Y-107807332D01*
X156452813Y-98001819D02*
X156119480Y-97525628D01*
X155881385Y-98001819D02*
X155881385Y-97001819D01*
X155881385Y-97001819D02*
X156262337Y-97001819D01*
X156262337Y-97001819D02*
X156357575Y-97049438D01*
X156357575Y-97049438D02*
X156405194Y-97097057D01*
X156405194Y-97097057D02*
X156452813Y-97192295D01*
X156452813Y-97192295D02*
X156452813Y-97335152D01*
X156452813Y-97335152D02*
X156405194Y-97430390D01*
X156405194Y-97430390D02*
X156357575Y-97478009D01*
X156357575Y-97478009D02*
X156262337Y-97525628D01*
X156262337Y-97525628D02*
X155881385Y-97525628D01*
X156833766Y-97097057D02*
X156881385Y-97049438D01*
X156881385Y-97049438D02*
X156976623Y-97001819D01*
X156976623Y-97001819D02*
X157214718Y-97001819D01*
X157214718Y-97001819D02*
X157309956Y-97049438D01*
X157309956Y-97049438D02*
X157357575Y-97097057D01*
X157357575Y-97097057D02*
X157405194Y-97192295D01*
X157405194Y-97192295D02*
X157405194Y-97287533D01*
X157405194Y-97287533D02*
X157357575Y-97430390D01*
X157357575Y-97430390D02*
X156786147Y-98001819D01*
X156786147Y-98001819D02*
X157405194Y-98001819D01*
X197666666Y-93149009D02*
X197333333Y-93149009D01*
X197333333Y-93672819D02*
X197333333Y-92672819D01*
X197333333Y-92672819D02*
X197809523Y-92672819D01*
X198714285Y-93672819D02*
X198142857Y-93672819D01*
X198428571Y-93672819D02*
X198428571Y-92672819D01*
X198428571Y-92672819D02*
X198333333Y-92815676D01*
X198333333Y-92815676D02*
X198238095Y-92910914D01*
X198238095Y-92910914D02*
X198142857Y-92958533D01*
X164185333Y-88245580D02*
X164137714Y-88293200D01*
X164137714Y-88293200D02*
X163994857Y-88340819D01*
X163994857Y-88340819D02*
X163899619Y-88340819D01*
X163899619Y-88340819D02*
X163756762Y-88293200D01*
X163756762Y-88293200D02*
X163661524Y-88197961D01*
X163661524Y-88197961D02*
X163613905Y-88102723D01*
X163613905Y-88102723D02*
X163566286Y-87912247D01*
X163566286Y-87912247D02*
X163566286Y-87769390D01*
X163566286Y-87769390D02*
X163613905Y-87578914D01*
X163613905Y-87578914D02*
X163661524Y-87483676D01*
X163661524Y-87483676D02*
X163756762Y-87388438D01*
X163756762Y-87388438D02*
X163899619Y-87340819D01*
X163899619Y-87340819D02*
X163994857Y-87340819D01*
X163994857Y-87340819D02*
X164137714Y-87388438D01*
X164137714Y-87388438D02*
X164185333Y-87436057D01*
X164518667Y-87340819D02*
X165185333Y-87340819D01*
X165185333Y-87340819D02*
X164756762Y-88340819D01*
X178338095Y-122468419D02*
X178338095Y-123277942D01*
X178338095Y-123277942D02*
X178385714Y-123373180D01*
X178385714Y-123373180D02*
X178433333Y-123420800D01*
X178433333Y-123420800D02*
X178528571Y-123468419D01*
X178528571Y-123468419D02*
X178719047Y-123468419D01*
X178719047Y-123468419D02*
X178814285Y-123420800D01*
X178814285Y-123420800D02*
X178861904Y-123373180D01*
X178861904Y-123373180D02*
X178909523Y-123277942D01*
X178909523Y-123277942D02*
X178909523Y-122468419D01*
X179814285Y-122801752D02*
X179814285Y-123468419D01*
X179576190Y-122420800D02*
X179338095Y-123135085D01*
X179338095Y-123135085D02*
X179957142Y-123135085D01*
X174337500Y-118658419D02*
X174337500Y-118896514D01*
X174099405Y-118801276D02*
X174337500Y-118896514D01*
X174337500Y-118896514D02*
X174575595Y-118801276D01*
X174194643Y-119086990D02*
X174337500Y-118896514D01*
X174337500Y-118896514D02*
X174480357Y-119086990D01*
X174337500Y-118658419D02*
X174337500Y-118896514D01*
X174099405Y-118801276D02*
X174337500Y-118896514D01*
X174337500Y-118896514D02*
X174575595Y-118801276D01*
X174194643Y-119086990D02*
X174337500Y-118896514D01*
X174337500Y-118896514D02*
X174480357Y-119086990D01*
X178338095Y-105068419D02*
X178338095Y-105877942D01*
X178338095Y-105877942D02*
X178385714Y-105973180D01*
X178385714Y-105973180D02*
X178433333Y-106020800D01*
X178433333Y-106020800D02*
X178528571Y-106068419D01*
X178528571Y-106068419D02*
X178719047Y-106068419D01*
X178719047Y-106068419D02*
X178814285Y-106020800D01*
X178814285Y-106020800D02*
X178861904Y-105973180D01*
X178861904Y-105973180D02*
X178909523Y-105877942D01*
X178909523Y-105877942D02*
X178909523Y-105068419D01*
X179290476Y-105068419D02*
X179957142Y-105068419D01*
X179957142Y-105068419D02*
X179528571Y-106068419D01*
D10*
X165949333Y-126600180D02*
X165901714Y-126647800D01*
X165901714Y-126647800D02*
X165758857Y-126695419D01*
X165758857Y-126695419D02*
X165663619Y-126695419D01*
X165663619Y-126695419D02*
X165520762Y-126647800D01*
X165520762Y-126647800D02*
X165425524Y-126552561D01*
X165425524Y-126552561D02*
X165377905Y-126457323D01*
X165377905Y-126457323D02*
X165330286Y-126266847D01*
X165330286Y-126266847D02*
X165330286Y-126123990D01*
X165330286Y-126123990D02*
X165377905Y-125933514D01*
X165377905Y-125933514D02*
X165425524Y-125838276D01*
X165425524Y-125838276D02*
X165520762Y-125743038D01*
X165520762Y-125743038D02*
X165663619Y-125695419D01*
X165663619Y-125695419D02*
X165758857Y-125695419D01*
X165758857Y-125695419D02*
X165901714Y-125743038D01*
X165901714Y-125743038D02*
X165949333Y-125790657D01*
X166520762Y-126123990D02*
X166425524Y-126076371D01*
X166425524Y-126076371D02*
X166377905Y-126028752D01*
X166377905Y-126028752D02*
X166330286Y-125933514D01*
X166330286Y-125933514D02*
X166330286Y-125885895D01*
X166330286Y-125885895D02*
X166377905Y-125790657D01*
X166377905Y-125790657D02*
X166425524Y-125743038D01*
X166425524Y-125743038D02*
X166520762Y-125695419D01*
X166520762Y-125695419D02*
X166711238Y-125695419D01*
X166711238Y-125695419D02*
X166806476Y-125743038D01*
X166806476Y-125743038D02*
X166854095Y-125790657D01*
X166854095Y-125790657D02*
X166901714Y-125885895D01*
X166901714Y-125885895D02*
X166901714Y-125933514D01*
X166901714Y-125933514D02*
X166854095Y-126028752D01*
X166854095Y-126028752D02*
X166806476Y-126076371D01*
X166806476Y-126076371D02*
X166711238Y-126123990D01*
X166711238Y-126123990D02*
X166520762Y-126123990D01*
X166520762Y-126123990D02*
X166425524Y-126171609D01*
X166425524Y-126171609D02*
X166377905Y-126219228D01*
X166377905Y-126219228D02*
X166330286Y-126314466D01*
X166330286Y-126314466D02*
X166330286Y-126504942D01*
X166330286Y-126504942D02*
X166377905Y-126600180D01*
X166377905Y-126600180D02*
X166425524Y-126647800D01*
X166425524Y-126647800D02*
X166520762Y-126695419D01*
X166520762Y-126695419D02*
X166711238Y-126695419D01*
X166711238Y-126695419D02*
X166806476Y-126647800D01*
X166806476Y-126647800D02*
X166854095Y-126600180D01*
X166854095Y-126600180D02*
X166901714Y-126504942D01*
X166901714Y-126504942D02*
X166901714Y-126314466D01*
X166901714Y-126314466D02*
X166854095Y-126219228D01*
X166854095Y-126219228D02*
X166806476Y-126171609D01*
X166806476Y-126171609D02*
X166711238Y-126123990D01*
D11*
X146180819Y-88178466D02*
X145704628Y-88511799D01*
X146180819Y-88749894D02*
X145180819Y-88749894D01*
X145180819Y-88749894D02*
X145180819Y-88368942D01*
X145180819Y-88368942D02*
X145228438Y-88273704D01*
X145228438Y-88273704D02*
X145276057Y-88226085D01*
X145276057Y-88226085D02*
X145371295Y-88178466D01*
X145371295Y-88178466D02*
X145514152Y-88178466D01*
X145514152Y-88178466D02*
X145609390Y-88226085D01*
X145609390Y-88226085D02*
X145657009Y-88273704D01*
X145657009Y-88273704D02*
X145704628Y-88368942D01*
X145704628Y-88368942D02*
X145704628Y-88749894D01*
X145180819Y-87273704D02*
X145180819Y-87749894D01*
X145180819Y-87749894D02*
X145657009Y-87797513D01*
X145657009Y-87797513D02*
X145609390Y-87749894D01*
X145609390Y-87749894D02*
X145561771Y-87654656D01*
X145561771Y-87654656D02*
X145561771Y-87416561D01*
X145561771Y-87416561D02*
X145609390Y-87321323D01*
X145609390Y-87321323D02*
X145657009Y-87273704D01*
X145657009Y-87273704D02*
X145752247Y-87226085D01*
X145752247Y-87226085D02*
X145990342Y-87226085D01*
X145990342Y-87226085D02*
X146085580Y-87273704D01*
X146085580Y-87273704D02*
X146133200Y-87321323D01*
X146133200Y-87321323D02*
X146180819Y-87416561D01*
X146180819Y-87416561D02*
X146180819Y-87654656D01*
X146180819Y-87654656D02*
X146133200Y-87749894D01*
X146133200Y-87749894D02*
X146085580Y-87797513D01*
X187667819Y-128090111D02*
X187191628Y-128423444D01*
X187667819Y-128661539D02*
X186667819Y-128661539D01*
X186667819Y-128661539D02*
X186667819Y-128280587D01*
X186667819Y-128280587D02*
X186715438Y-128185349D01*
X186715438Y-128185349D02*
X186763057Y-128137730D01*
X186763057Y-128137730D02*
X186858295Y-128090111D01*
X186858295Y-128090111D02*
X187001152Y-128090111D01*
X187001152Y-128090111D02*
X187096390Y-128137730D01*
X187096390Y-128137730D02*
X187144009Y-128185349D01*
X187144009Y-128185349D02*
X187191628Y-128280587D01*
X187191628Y-128280587D02*
X187191628Y-128661539D01*
X187001152Y-127661539D02*
X188001152Y-127661539D01*
X187048771Y-127661539D02*
X187001152Y-127566301D01*
X187001152Y-127566301D02*
X187001152Y-127375825D01*
X187001152Y-127375825D02*
X187048771Y-127280587D01*
X187048771Y-127280587D02*
X187096390Y-127232968D01*
X187096390Y-127232968D02*
X187191628Y-127185349D01*
X187191628Y-127185349D02*
X187477342Y-127185349D01*
X187477342Y-127185349D02*
X187572580Y-127232968D01*
X187572580Y-127232968D02*
X187620200Y-127280587D01*
X187620200Y-127280587D02*
X187667819Y-127375825D01*
X187667819Y-127375825D02*
X187667819Y-127566301D01*
X187667819Y-127566301D02*
X187620200Y-127661539D01*
X187667819Y-126756777D02*
X187001152Y-126756777D01*
X186667819Y-126756777D02*
X186715438Y-126804396D01*
X186715438Y-126804396D02*
X186763057Y-126756777D01*
X186763057Y-126756777D02*
X186715438Y-126709158D01*
X186715438Y-126709158D02*
X186667819Y-126756777D01*
X186667819Y-126756777D02*
X186763057Y-126756777D01*
X187763057Y-126518683D02*
X187763057Y-125756778D01*
X187667819Y-125518682D02*
X186667819Y-125518682D01*
X187144009Y-125518682D02*
X187144009Y-124947254D01*
X187667819Y-124947254D02*
X186667819Y-124947254D01*
X187667819Y-124042492D02*
X187144009Y-124042492D01*
X187144009Y-124042492D02*
X187048771Y-124090111D01*
X187048771Y-124090111D02*
X187001152Y-124185349D01*
X187001152Y-124185349D02*
X187001152Y-124375825D01*
X187001152Y-124375825D02*
X187048771Y-124471063D01*
X187620200Y-124042492D02*
X187667819Y-124137730D01*
X187667819Y-124137730D02*
X187667819Y-124375825D01*
X187667819Y-124375825D02*
X187620200Y-124471063D01*
X187620200Y-124471063D02*
X187524961Y-124518682D01*
X187524961Y-124518682D02*
X187429723Y-124518682D01*
X187429723Y-124518682D02*
X187334485Y-124471063D01*
X187334485Y-124471063D02*
X187286866Y-124375825D01*
X187286866Y-124375825D02*
X187286866Y-124137730D01*
X187286866Y-124137730D02*
X187239247Y-124042492D01*
X187001152Y-123709158D02*
X187001152Y-123328206D01*
X186667819Y-123566301D02*
X187524961Y-123566301D01*
X187524961Y-123566301D02*
X187620200Y-123518682D01*
X187620200Y-123518682D02*
X187667819Y-123423444D01*
X187667819Y-123423444D02*
X187667819Y-123328206D01*
X187763057Y-123232968D02*
X187763057Y-122471063D01*
X187572580Y-121661539D02*
X187620200Y-121709158D01*
X187620200Y-121709158D02*
X187667819Y-121852015D01*
X187667819Y-121852015D02*
X187667819Y-121947253D01*
X187667819Y-121947253D02*
X187620200Y-122090110D01*
X187620200Y-122090110D02*
X187524961Y-122185348D01*
X187524961Y-122185348D02*
X187429723Y-122232967D01*
X187429723Y-122232967D02*
X187239247Y-122280586D01*
X187239247Y-122280586D02*
X187096390Y-122280586D01*
X187096390Y-122280586D02*
X186905914Y-122232967D01*
X186905914Y-122232967D02*
X186810676Y-122185348D01*
X186810676Y-122185348D02*
X186715438Y-122090110D01*
X186715438Y-122090110D02*
X186667819Y-121947253D01*
X186667819Y-121947253D02*
X186667819Y-121852015D01*
X186667819Y-121852015D02*
X186715438Y-121709158D01*
X186715438Y-121709158D02*
X186763057Y-121661539D01*
X187667819Y-120804396D02*
X187144009Y-120804396D01*
X187144009Y-120804396D02*
X187048771Y-120852015D01*
X187048771Y-120852015D02*
X187001152Y-120947253D01*
X187001152Y-120947253D02*
X187001152Y-121137729D01*
X187001152Y-121137729D02*
X187048771Y-121232967D01*
X187620200Y-120804396D02*
X187667819Y-120899634D01*
X187667819Y-120899634D02*
X187667819Y-121137729D01*
X187667819Y-121137729D02*
X187620200Y-121232967D01*
X187620200Y-121232967D02*
X187524961Y-121280586D01*
X187524961Y-121280586D02*
X187429723Y-121280586D01*
X187429723Y-121280586D02*
X187334485Y-121232967D01*
X187334485Y-121232967D02*
X187286866Y-121137729D01*
X187286866Y-121137729D02*
X187286866Y-120899634D01*
X187286866Y-120899634D02*
X187239247Y-120804396D01*
X187667819Y-120328205D02*
X187001152Y-120328205D01*
X187096390Y-120328205D02*
X187048771Y-120280586D01*
X187048771Y-120280586D02*
X187001152Y-120185348D01*
X187001152Y-120185348D02*
X187001152Y-120042491D01*
X187001152Y-120042491D02*
X187048771Y-119947253D01*
X187048771Y-119947253D02*
X187144009Y-119899634D01*
X187144009Y-119899634D02*
X187667819Y-119899634D01*
X187144009Y-119899634D02*
X187048771Y-119852015D01*
X187048771Y-119852015D02*
X187001152Y-119756777D01*
X187001152Y-119756777D02*
X187001152Y-119613920D01*
X187001152Y-119613920D02*
X187048771Y-119518681D01*
X187048771Y-119518681D02*
X187144009Y-119471062D01*
X187144009Y-119471062D02*
X187667819Y-119471062D01*
X187620200Y-118613920D02*
X187667819Y-118709158D01*
X187667819Y-118709158D02*
X187667819Y-118899634D01*
X187667819Y-118899634D02*
X187620200Y-118994872D01*
X187620200Y-118994872D02*
X187524961Y-119042491D01*
X187524961Y-119042491D02*
X187144009Y-119042491D01*
X187144009Y-119042491D02*
X187048771Y-118994872D01*
X187048771Y-118994872D02*
X187001152Y-118899634D01*
X187001152Y-118899634D02*
X187001152Y-118709158D01*
X187001152Y-118709158D02*
X187048771Y-118613920D01*
X187048771Y-118613920D02*
X187144009Y-118566301D01*
X187144009Y-118566301D02*
X187239247Y-118566301D01*
X187239247Y-118566301D02*
X187334485Y-119042491D01*
X187667819Y-118137729D02*
X187001152Y-118137729D01*
X187191628Y-118137729D02*
X187096390Y-118090110D01*
X187096390Y-118090110D02*
X187048771Y-118042491D01*
X187048771Y-118042491D02*
X187001152Y-117947253D01*
X187001152Y-117947253D02*
X187001152Y-117852015D01*
X187667819Y-117090110D02*
X187144009Y-117090110D01*
X187144009Y-117090110D02*
X187048771Y-117137729D01*
X187048771Y-117137729D02*
X187001152Y-117232967D01*
X187001152Y-117232967D02*
X187001152Y-117423443D01*
X187001152Y-117423443D02*
X187048771Y-117518681D01*
X187620200Y-117090110D02*
X187667819Y-117185348D01*
X187667819Y-117185348D02*
X187667819Y-117423443D01*
X187667819Y-117423443D02*
X187620200Y-117518681D01*
X187620200Y-117518681D02*
X187524961Y-117566300D01*
X187524961Y-117566300D02*
X187429723Y-117566300D01*
X187429723Y-117566300D02*
X187334485Y-117518681D01*
X187334485Y-117518681D02*
X187286866Y-117423443D01*
X187286866Y-117423443D02*
X187286866Y-117185348D01*
X187286866Y-117185348D02*
X187239247Y-117090110D01*
X187763057Y-116852015D02*
X187763057Y-116090110D01*
X187620200Y-115899633D02*
X187667819Y-115756776D01*
X187667819Y-115756776D02*
X187667819Y-115518681D01*
X187667819Y-115518681D02*
X187620200Y-115423443D01*
X187620200Y-115423443D02*
X187572580Y-115375824D01*
X187572580Y-115375824D02*
X187477342Y-115328205D01*
X187477342Y-115328205D02*
X187382104Y-115328205D01*
X187382104Y-115328205D02*
X187286866Y-115375824D01*
X187286866Y-115375824D02*
X187239247Y-115423443D01*
X187239247Y-115423443D02*
X187191628Y-115518681D01*
X187191628Y-115518681D02*
X187144009Y-115709157D01*
X187144009Y-115709157D02*
X187096390Y-115804395D01*
X187096390Y-115804395D02*
X187048771Y-115852014D01*
X187048771Y-115852014D02*
X186953533Y-115899633D01*
X186953533Y-115899633D02*
X186858295Y-115899633D01*
X186858295Y-115899633D02*
X186763057Y-115852014D01*
X186763057Y-115852014D02*
X186715438Y-115804395D01*
X186715438Y-115804395D02*
X186667819Y-115709157D01*
X186667819Y-115709157D02*
X186667819Y-115471062D01*
X186667819Y-115471062D02*
X186715438Y-115328205D01*
X187667819Y-114756776D02*
X187620200Y-114852014D01*
X187620200Y-114852014D02*
X187524961Y-114899633D01*
X187524961Y-114899633D02*
X186667819Y-114899633D01*
X187667819Y-114232966D02*
X187620200Y-114328204D01*
X187620200Y-114328204D02*
X187572580Y-114375823D01*
X187572580Y-114375823D02*
X187477342Y-114423442D01*
X187477342Y-114423442D02*
X187191628Y-114423442D01*
X187191628Y-114423442D02*
X187096390Y-114375823D01*
X187096390Y-114375823D02*
X187048771Y-114328204D01*
X187048771Y-114328204D02*
X187001152Y-114232966D01*
X187001152Y-114232966D02*
X187001152Y-114090109D01*
X187001152Y-114090109D02*
X187048771Y-113994871D01*
X187048771Y-113994871D02*
X187096390Y-113947252D01*
X187096390Y-113947252D02*
X187191628Y-113899633D01*
X187191628Y-113899633D02*
X187477342Y-113899633D01*
X187477342Y-113899633D02*
X187572580Y-113947252D01*
X187572580Y-113947252D02*
X187620200Y-113994871D01*
X187620200Y-113994871D02*
X187667819Y-114090109D01*
X187667819Y-114090109D02*
X187667819Y-114232966D01*
X187001152Y-113613918D02*
X187001152Y-113232966D01*
X186667819Y-113471061D02*
X187524961Y-113471061D01*
X187524961Y-113471061D02*
X187620200Y-113423442D01*
X187620200Y-113423442D02*
X187667819Y-113328204D01*
X187667819Y-113328204D02*
X187667819Y-113232966D01*
D12*
%TO.C,U2*%
X175645600Y-108873600D02*
X175645600Y-109181612D01*
X175645600Y-111105588D02*
X175645600Y-111721612D01*
X175645600Y-113645588D02*
X175645600Y-113953600D01*
X175645600Y-113953600D02*
X182554400Y-113953600D01*
X182554400Y-108873600D02*
X175645600Y-108873600D01*
X182554400Y-109181612D02*
X182554400Y-108873600D01*
X182554400Y-111721612D02*
X182554400Y-111105588D01*
X182554400Y-113953600D02*
X182554400Y-113645588D01*
%TO.C,U3*%
X175645600Y-114673600D02*
X175645600Y-114981612D01*
X175645600Y-116905588D02*
X175645600Y-117521612D01*
X175645600Y-119445588D02*
X175645600Y-119753600D01*
X175645600Y-119753600D02*
X182554400Y-119753600D01*
X182554400Y-114673600D02*
X175645600Y-114673600D01*
X182554400Y-114981612D02*
X182554400Y-114673600D01*
X182554400Y-117521612D02*
X182554400Y-116905588D01*
X182554400Y-119753600D02*
X182554400Y-119445588D01*
%TO.C,U5*%
X175645600Y-126273600D02*
X175645600Y-126581612D01*
X175645600Y-128505588D02*
X175645600Y-129121612D01*
X175645600Y-131045588D02*
X175645600Y-131353600D01*
X175645600Y-131353600D02*
X182554400Y-131353600D01*
X182554400Y-126273600D02*
X175645600Y-126273600D01*
X182554400Y-126581612D02*
X182554400Y-126273600D01*
X182554400Y-129121612D02*
X182554400Y-128505588D01*
X182554400Y-131353600D02*
X182554400Y-131045588D01*
%TO.C,U6*%
X175645600Y-97273600D02*
X175645600Y-97581612D01*
X175645600Y-99505588D02*
X175645600Y-100121612D01*
X175645600Y-102045588D02*
X175645600Y-102353600D01*
X175645600Y-102353600D02*
X182554400Y-102353600D01*
X182554400Y-97273600D02*
X175645600Y-97273600D01*
X182554400Y-97581612D02*
X182554400Y-97273600D01*
X182554400Y-100121612D02*
X182554400Y-99505588D01*
X182554400Y-102353600D02*
X182554400Y-102045588D01*
D13*
%TO.C,C4*%
X165063252Y-93126000D02*
X163640748Y-93126000D01*
X165063252Y-95846000D02*
X163640748Y-95846000D01*
%TO.C,H2*%
X195012000Y-83882000D02*
X196342000Y-83882000D01*
X195012000Y-85212000D02*
X195012000Y-83882000D01*
X195012000Y-86482000D02*
X195012000Y-89082000D01*
X195012000Y-86482000D02*
X197672000Y-86482000D01*
X195012000Y-89082000D02*
X197672000Y-89082000D01*
X197672000Y-86482000D02*
X197672000Y-89082000D01*
%TO.C,R1*%
X145895743Y-96192000D02*
X147343217Y-96192000D01*
X145895743Y-98902000D02*
X147343217Y-98902000D01*
%TO.C,C9*%
X166384000Y-120730000D02*
X166384000Y-119400000D01*
X167714000Y-120730000D02*
X166384000Y-120730000D01*
X168984000Y-118070000D02*
X171584000Y-118070000D01*
X168984000Y-120730000D02*
X168984000Y-118070000D01*
X168984000Y-120730000D02*
X171584000Y-120730000D01*
X171584000Y-120730000D02*
X171584000Y-118070000D01*
%TO.C,C11*%
X192604000Y-102048000D02*
X192604000Y-104708000D01*
X195204000Y-102048000D02*
X192604000Y-102048000D01*
X195204000Y-102048000D02*
X195204000Y-104708000D01*
X195204000Y-104708000D02*
X192604000Y-104708000D01*
X196474000Y-102048000D02*
X197804000Y-102048000D01*
X197804000Y-102048000D02*
X197804000Y-103378000D01*
%TO.C,L1*%
X155077000Y-87911000D02*
X156337500Y-87911000D01*
X155077000Y-94461000D02*
X155077000Y-87911000D01*
X156337500Y-94461000D02*
X155077000Y-94461000D01*
X160366500Y-94461000D02*
X161627000Y-94461000D01*
X161627000Y-87911000D02*
X160366500Y-87911000D01*
X161627000Y-94461000D02*
X161627000Y-87911000D01*
%TO.C,H1*%
X192488000Y-83882000D02*
X193818000Y-83882000D01*
X192488000Y-85212000D02*
X192488000Y-83882000D01*
X192488000Y-86482000D02*
X192488000Y-89082000D01*
X192488000Y-86482000D02*
X195148000Y-86482000D01*
X192488000Y-89082000D02*
X195148000Y-89082000D01*
X195148000Y-86482000D02*
X195148000Y-89082000D01*
%TO.C,H4*%
X200060000Y-83882000D02*
X201390000Y-83882000D01*
X200060000Y-85212000D02*
X200060000Y-83882000D01*
X200060000Y-86482000D02*
X200060000Y-89082000D01*
X200060000Y-86482000D02*
X202720000Y-86482000D01*
X200060000Y-89082000D02*
X202720000Y-89082000D01*
X202720000Y-86482000D02*
X202720000Y-89082000D01*
%TO.C,C10*%
X192604000Y-117470000D02*
X192604000Y-120130000D01*
X195204000Y-117470000D02*
X192604000Y-117470000D01*
X195204000Y-117470000D02*
X195204000Y-120130000D01*
X195204000Y-120130000D02*
X192604000Y-120130000D01*
X196474000Y-117470000D02*
X197804000Y-117470000D01*
X197804000Y-117470000D02*
X197804000Y-118800000D01*
%TO.C,C6*%
X165063252Y-89826000D02*
X163640748Y-89826000D01*
X165063252Y-92546000D02*
X163640748Y-92546000D01*
%TO.C,C2*%
X151366000Y-88723052D02*
X151366000Y-87300548D01*
X154086000Y-88723052D02*
X154086000Y-87300548D01*
%TO.C,H5*%
X192604000Y-127956000D02*
X192604000Y-130616000D01*
X195204000Y-127956000D02*
X192604000Y-127956000D01*
X195204000Y-127956000D02*
X195204000Y-130616000D01*
X195204000Y-130616000D02*
X192604000Y-130616000D01*
X196474000Y-127956000D02*
X197804000Y-127956000D01*
X197804000Y-127956000D02*
X197804000Y-129286000D01*
D14*
%TO.C,J1*%
X147200000Y-76910000D02*
X198000000Y-76910000D01*
X147200000Y-81990000D02*
X147200000Y-76910000D01*
X198000000Y-76910000D02*
X198000000Y-81990000D01*
X198000000Y-81990000D02*
X147200000Y-81990000D01*
D12*
%TO.C,R6*%
X177017200Y-93825640D02*
X177017200Y-94201560D01*
X181182800Y-93825640D02*
X181182800Y-94201560D01*
D13*
%TO.C,J4*%
X149770000Y-101144000D02*
X151100000Y-101144000D01*
X149770000Y-102474000D02*
X149770000Y-101144000D01*
X149770000Y-103744000D02*
X149770000Y-108884000D01*
X149770000Y-103744000D02*
X152430000Y-103744000D01*
X149770000Y-108884000D02*
X152430000Y-108884000D01*
X152430000Y-103744000D02*
X152430000Y-108884000D01*
%TO.C,C5*%
X155700000Y-103685252D02*
X155700000Y-102262748D01*
X158420000Y-103685252D02*
X158420000Y-102262748D01*
%TO.C,J3*%
X144690000Y-101144000D02*
X146020000Y-101144000D01*
X144690000Y-102474000D02*
X144690000Y-101144000D01*
X144690000Y-103744000D02*
X144690000Y-111424000D01*
X144690000Y-103744000D02*
X147350000Y-103744000D01*
X144690000Y-111424000D02*
X147350000Y-111424000D01*
X147350000Y-103744000D02*
X147350000Y-111424000D01*
%TO.C,R4*%
X147871000Y-88735537D02*
X147871000Y-87288063D01*
X150581000Y-88735537D02*
X150581000Y-87288063D01*
%TO.C,C3*%
X150908228Y-96187000D02*
X152330732Y-96187000D01*
X150908228Y-98907000D02*
X152330732Y-98907000D01*
%TO.C,C1*%
X145647000Y-92335748D02*
X145647000Y-93758252D01*
X148367000Y-92335748D02*
X148367000Y-93758252D01*
%TO.C,H3*%
X197536000Y-83882000D02*
X198866000Y-83882000D01*
X197536000Y-85212000D02*
X197536000Y-83882000D01*
X197536000Y-86482000D02*
X197536000Y-89082000D01*
X197536000Y-86482000D02*
X200196000Y-86482000D01*
X197536000Y-89082000D02*
X200196000Y-89082000D01*
X200196000Y-86482000D02*
X200196000Y-89082000D01*
D12*
%TO.C,U1*%
X152316876Y-92636459D02*
X152315741Y-92341144D01*
D13*
%TO.C,R3*%
X155705000Y-108697737D02*
X155705000Y-107250263D01*
X158415000Y-108697737D02*
X158415000Y-107250263D01*
%TO.C,R2*%
X157343217Y-96192000D02*
X155895743Y-96192000D01*
X157343217Y-98902000D02*
X155895743Y-98902000D01*
%TO.C,F1*%
X195796248Y-90548000D02*
X200203752Y-90548000D01*
X195796248Y-95888000D02*
X200203752Y-95888000D01*
%TO.C,J6*%
X142150000Y-101144000D02*
X143480000Y-101144000D01*
X142150000Y-102474000D02*
X142150000Y-101144000D01*
X142150000Y-103744000D02*
X142150000Y-111424000D01*
X142150000Y-103744000D02*
X144810000Y-103744000D01*
X142150000Y-111424000D02*
X144810000Y-111424000D01*
X144810000Y-103744000D02*
X144810000Y-111424000D01*
%TO.C,J2*%
X152310000Y-101144000D02*
X153640000Y-101144000D01*
X152310000Y-102474000D02*
X152310000Y-101144000D01*
X152310000Y-103744000D02*
X152310000Y-108884000D01*
X152310000Y-103744000D02*
X154970000Y-103744000D01*
X152310000Y-108884000D02*
X154970000Y-108884000D01*
X154970000Y-103744000D02*
X154970000Y-108884000D01*
%TO.C,C7*%
X165063252Y-86526000D02*
X163640748Y-86526000D01*
X165063252Y-89246000D02*
X163640748Y-89246000D01*
D12*
%TO.C,U4*%
X175645600Y-120473600D02*
X175645600Y-120781612D01*
X175645600Y-122705588D02*
X175645600Y-123321612D01*
X175645600Y-125245588D02*
X175645600Y-125553600D01*
X175645600Y-125553600D02*
X182554400Y-125553600D01*
X182554400Y-120473600D02*
X175645600Y-120473600D01*
X182554400Y-120781612D02*
X182554400Y-120473600D01*
X182554400Y-123321612D02*
X182554400Y-122705588D01*
X182554400Y-125553600D02*
X182554400Y-125245588D01*
D13*
%TO.C,J5*%
X147230000Y-101144000D02*
X148560000Y-101144000D01*
X147230000Y-102474000D02*
X147230000Y-101144000D01*
X147230000Y-103744000D02*
X147230000Y-111424000D01*
X147230000Y-103744000D02*
X149890000Y-103744000D01*
X147230000Y-111424000D02*
X149890000Y-111424000D01*
X149890000Y-103744000D02*
X149890000Y-111424000D01*
D12*
%TO.C,U7*%
X175645600Y-103073600D02*
X175645600Y-103381612D01*
X175645600Y-105305588D02*
X175645600Y-105921612D01*
X175645600Y-107845588D02*
X175645600Y-108153600D01*
X175645600Y-108153600D02*
X182554400Y-108153600D01*
X182554400Y-103073600D02*
X175645600Y-103073600D01*
X182554400Y-103381612D02*
X182554400Y-103073600D01*
X182554400Y-105921612D02*
X182554400Y-105305588D01*
X182554400Y-108153600D02*
X182554400Y-107845588D01*
D13*
%TO.C,R5*%
X144371000Y-88735537D02*
X144371000Y-87288063D01*
X147081000Y-88735537D02*
X147081000Y-87288063D01*
%TD*%
M02*
